<?xml version="1.0" encoding="utf-8"?>
<!-- Generator: Adobe Illustrator 16.0.0, SVG Export Plug-In . SVG Version: 6.00 Build 0)  -->

<!-- Author : SHUBHAM JAIN
	   link : in.linkedin.com/in/shubhamjain16/
	contact : shubhamjain1602@gmail.com
-->
<!DOCTYPE svg PUBLIC "-//W3C//DTD SVG 1.1//EN" "http://www.w3.org/Graphics/SVG/1.1/DTD/svg11.dtd">
<svg version="1.1" id="Layer_1" xmlns="http://www.w3.org/2000/svg" xmlns:xlink="http://www.w3.org/1999/xlink" x="0px" y="0px"
	 width="1920px" height="1402px" viewBox="0 -0.048 1920 1402" enable-background="new 0 -0.048 1920 1402" xml:space="preserve">
<g id="top">
	<g>
		<polyline fill="none" stroke="#1C75BC" stroke-width="4" stroke-miterlimit="10" points="73.508,1184.9 56.943,1168.344 
			56.943,208.265 193.019,72.103 1671.595,72.103 1688.021,88.526 		"/>
		<path fill="#1C75BC" d="M77.944,1199.238c6.019,0,10.885-4.875,10.885-10.878c0-6.015-4.866-10.885-10.885-10.885
			c-6.008,0-10.875,4.87-10.875,10.885C67.069,1194.363,71.936,1199.238,77.944,1199.238"/>
		<path fill="#FFFFFF" d="M77.944,1193.988c3.114,0,5.634-2.527,5.634-5.628c0-3.106-2.521-5.636-5.634-5.636
			c-3.104,0-5.624,2.528-5.624,5.636C72.32,1191.461,74.84,1193.988,77.944,1193.988"/>
		<path fill="#1C75BC" d="M1692.551,106.141c6.012,0,10.881-4.875,10.881-10.881c0-6.014-4.869-10.885-10.881-10.885
			c-6.01,0-10.881,4.871-10.881,10.885C1681.67,101.267,1686.541,106.141,1692.551,106.141"/>
		<path fill="#FFFFFF" d="M1692.551,100.884c3.107,0,5.628-2.521,5.628-5.624c0-3.109-2.521-5.628-5.628-5.628
			c-3.105,0-5.632,2.519-5.632,5.628C1686.919,98.364,1689.444,100.884,1692.551,100.884"/>
	</g>
</g>
<g id="bottom">
	<polyline fill="none" stroke="#1C75BC" stroke-width="4" stroke-miterlimit="10" points="274.242,1325.189 292.14,1341.167 
		1874.042,1341.167 1874.042,254.292 1855.854,236.098 	"/>
	<g id="dots_r-b_1_">
		<path fill="#1C75BC" d="M277.74,1338.803c5.999,0,10.875-4.867,10.875-10.874c0-6.01-4.876-10.884-10.875-10.884
			c-6.019,0-10.884,4.874-10.884,10.884C266.856,1333.936,271.722,1338.803,277.74,1338.803"/>
		<path fill="#FFFFFF" d="M277.74,1333.553c3.094,0,5.624-2.513,5.624-5.624c0-3.105-2.53-5.635-5.624-5.635
			c-3.114,0-5.634,2.528-5.634,5.635C272.106,1331.04,274.626,1333.553,277.74,1333.553"/>
		<path fill="#1C75BC" d="M1851.148,243.055c6.007,0,10.877-4.871,10.877-10.873c0-6.014-4.87-10.885-10.877-10.885
			c-6.008,0-10.882,4.871-10.882,10.885C1840.268,238.184,1845.142,243.055,1851.148,243.055"/>
		<path fill="#FFFFFF" d="M1851.148,237.806c3.104,0,5.623-2.524,5.623-5.635c0-3.1-2.521-5.625-5.623-5.625
			c-3.11,0-5.636,2.524-5.636,5.625C1845.514,235.281,1848.038,237.806,1851.148,237.806"/>
	</g>
</g>
<g id="gear_b">
	<g id="gb4">
		<path fill="#1C75BC" d="M147.115,1112.986c-0.127-0.518-0.302-1.114-0.421-1.72c-0.082-0.428-0.035-0.884-0.154-1.3
			c-0.394-1.43-0.905-2.821-1.26-4.251c-0.348-1.373-0.549-2.784-0.84-4.161c-0.037-0.163-0.266-0.268-0.375-0.408
			c-0.603-0.806-0.146-2.436,0.748-2.828c1.078-0.482,2.164-0.965,3.197-1.537c1.579-0.88,3.104-1.85,4.666-2.762
			c1.197-0.69,2.355-1.427,3.607-1.982c0.574-0.26,1.315-0.623,1.926,0.334c0.685,1.077,1.599,2.034,2.465,2.978
			c1.534,1.659,3.096,3.301,4.685,4.904c0.949,0.957,1.816,2.171,3.496,1.626c0.888-0.29,1.8-0.486,2.686-0.783
			c1.269-0.408,2.493-0.973,3.791-1.272c1.652-0.383,3.35-0.568,4.848-0.806c0.373-0.729,0.776-1.271,0.94-1.891
			c0.347-1.281,0.566-2.595,0.832-3.905c0.027-0.118,0.055-0.229,0.09-0.342c0.412-1.069,0.914-2.112,1.224-3.207
			c0.383-1.385,0.622-2.817,0.94-4.313c0.521,0,0.996,0,1.462,0c4.199,0.021,8.382,0.041,12.574,0.063
			c1.644,0.016,2.155,0.594,2.338,2.231c0.172,1.674,0.52,3.329,0.785,4.988c0.018,0.081,0.027,0.167,0.063,0.237
			c0.812,1.525,0.958,3.237,1.251,4.891c0.256,1.514,0.493,1.849,2.054,2.004c1.398,0.147,2.776,0.522,4.155,0.795
			c0.037,0.007,0.074,0.041,0.11,0.063c1.06,0.412,2.109,0.84,3.178,1.248c1.188,0.46,2.374,0.937,3.589,1.332
			c0.383,0.119,1.023,0.164,1.232-0.056c2.713-2.706,5.35-5.482,8.044-8.204c0.621-0.62,1.289-1.366,2.329-0.92
			c0.311,0.133,0.521,0.482,0.822,0.648c1.479,0.827,2.995,1.553,4.438,2.425c1.717,1.062,3.378,2.234,5.05,3.362
			c0.822,0.551,1.616,1.121,2.292,1.594c-0.484,1.235-0.95,2.228-1.27,3.271c-0.338,1.121-0.548,2.279-0.813,3.423
			c-0.027,0.115-0.082,0.215-0.117,0.33c-0.43,1.24-0.85,2.487-1.297,3.734c-0.156,0.438-0.43,0.847-0.529,1.292
			c-0.092,0.435-0.219,1.103,0.008,1.321c1.698,1.741,3.533,3.359,5.26,5.087c1.498,1.524,2.903,3.15,4.309,4.698
			c0.639-0.104,1.37-0.223,2.092-0.322c0.346-0.057,0.712-0.04,1.042-0.148c1.359-0.408,2.684-0.916,4.054-1.258
			c1.406-0.35,2.849-0.539,4.274-0.828c0.154-0.033,0.263-0.241,0.419-0.355c0.639-0.49,1.771-0.315,2.019,0.268
			c0.502,1.202,0.967,2.417,1.579,3.56c0.603,1.134,1.388,2.153,2.046,3.261c0.958,1.654,1.944,3.312,2.749,5.037
			c0.246,0.522,0.209,1.586-0.146,1.931c-2.375,2.269-4.886,4.403-7.324,6.604c-1.123,1.002-2.265,2.001-1.717,3.786
			c0.311,1.015,0.529,2.058,0.803,3.078c0.01,0.04,0.028,0.074,0.046,0.115c0.429,1.41,0.877,2.821,1.278,4.25
			c0.247,0.872,0.631,1.786,0.585,2.654c-0.083,1.916,0.593,2.698,2.594,2.731c1.059,0.016,2.09,0.828,3.168,1.154
			c0.849,0.268,1.717,0.156,2.629,0.661c1.086,0.627,2.539,0.648,3.844,0.865c1.105,0.17,1.635,1.173,1.17,2.205
			c-0.174,0.375-0.228,0.834-0.238,1.254c-0.037,3.832-0.1,7.662-0.064,11.498c0.02,1.201-0.374,1.662-1.57,1.572
			c-0.54-0.044-1.124,0.02-1.653,0.148c-1.644,0.396-3.269,0.884-4.922,1.251c-1.47,0.323-2.958,0.539-4.428,0.806
			c-0.138,0.034-0.266,0.16-0.375,0.269c-1.151,1.021-0.877,2.572-1.37,3.843c-0.494,1.28-0.584,2.717-0.86,4.083
			c-0.007,0.067-0.055,0.147-0.072,0.219c-0.437,1.118-0.858,2.235-1.307,3.349c-0.136,0.371-0.437,0.726-0.482,1.097
			c-0.064,0.692-0.256,1.589,0.09,2.053c0.677,0.932,1.709,1.581,2.539,2.42c2.155,2.221,4.282,4.479,6.447,6.742
			c-0.201,0.182-0.502,0.326-0.621,0.563c-0.557,1.043-0.994,2.156-1.605,3.17c-0.859,1.407-1.837,2.729-2.749,4.08
			c-0.229,0.33-0.467,0.656-0.667,0.987c-0.475,0.746-0.94,1.496-1.379,2.265c-0.374,0.668-0.721,1.345-1.151,2.146
			c-1.149-0.282-2.438-0.568-3.698-0.95c-1.086-0.338-2.117-0.839-3.213-1.188c-1.078-0.319-2.182-0.538-3.278-0.82
			c-0.12-0.029-0.192-0.312-0.302-0.319c-0.941-0.08-2.092-0.5-2.767-0.11c-1.123,0.649-1.963,1.801-2.868,2.807
			c-1.908,2.108-3.78,4.243-6.317,5.688c-0.795,0.444-1.16,1.896-0.886,2.658c0.484,1.34,0.987,2.673,1.324,4.054
			c0.365,1.433,0.557,2.921,0.83,4.392c0.02,0.1,0.074,0.219,0.137,0.313c1.068,1.634,0.594,3.028-1.159,3.615
			c-0.676,0.22-1.287,0.64-1.928,0.983c-0.684,0.375-1.342,0.787-2.035,1.144c-0.684,0.339-1.425,0.575-2.091,0.939
			c-1.16,0.623-2.301,1.288-3.434,1.956c-0.721,0.427-1.434,0.884-2.191,1.358c-1.442-1.414-2.968-2.821-4.375-4.336
			c-0.912-0.979-1.58-2.193-2.483-3.188c-0.64-0.694-1.452-1.646-2.228-1.678c-1.352-0.067-2.749,0.438-4.101,0.782
			c-1.516,0.383-2.995,0.959-4.528,1.288c-1.7,0.363-3.434,0.538-5.151,0.813c-0.165,0.025-0.302,0.201-0.456,0.313
			c-1.116,0.775-0.75,2.164-1.298,3.223c-0.603,1.133-0.603,2.564-0.877,3.872c-0.027,0.106-0.072,0.219-0.109,0.327
			c-0.419,1.194-1.078,2.356-1.187,3.577c-0.127,1.301-0.585,1.607-1.763,1.526c-3.315-0.257-6.62-0.457-9.935-0.646
			c-1.031-0.056-2.072-0.019-3.113-0.036c-1.196-0.02-1.644-0.53-1.79-1.744c-0.21-1.679-0.52-3.36-0.776-5.042
			c-0.009-0.037-0.009-0.07-0.02-0.118c-0.447-1.508-1.004-2.996-1.295-4.537c-0.193-1.076-0.713-1.463-1.699-1.518
			c-0.593-0.026-1.196-0.046-1.752-0.189c-1.296-0.368-2.548-0.843-3.836-1.226c-1.069-0.319-2.2-0.464-3.242-0.851
			c-0.768-0.271-1.396-0.966-2.164-1.15c-0.775-0.183-1.945-0.309-2.428,0.119c-2.932,2.595-5.726,5.342-8.566,8.036
			c-0.127,0.119-0.375,0.302-0.447,0.265c-0.604-0.31-1.178-0.657-1.754-1.021c-0.967-0.601-1.917-1.225-2.886-1.825
			c-0.949-0.587-1.926-1.133-2.857-1.737c-0.868-0.564-1.67-1.247-2.548-1.797c-1.041-0.64-2.136-1.195-3.076-1.708
			c1.333-4.246,2.62-8.355,3.971-12.647c-3.432-3.122-6.583-6.774-9.716-10.811c-0.291,0.019-0.912-0.057-1.46,0.107
			c-1.316,0.367-2.576,0.924-3.89,1.263c-1.442,0.355-2.931,0.557-4.392,0.813c-0.083,0.02-0.184,0.007-0.239,0.044
			c-1.123,1.17-2.482,0.457-3.624,0.603c-0.421-0.959-0.722-1.798-1.132-2.572c-0.877-1.663-1.817-3.297-2.712-4.949
			c-0.293-0.542-0.504-1.124-0.813-1.655c-0.621-1.021-1.415-1.952-1.9-3.04c-0.247-0.557-0.228-1.634,0.137-1.998
			c1.361-1.351,2.949-2.476,4.383-3.756c1.626-1.467,3.187-3.015,4.758-4.537c0.236-0.232,0.602-0.583,0.565-0.81
			c-0.154-0.839-0.447-1.663-0.711-2.477c-0.43-1.3-1.014-2.564-1.28-3.897c-0.393-1.982-0.537-4.023-0.82-6.028
			c-0.055-0.293-0.248-0.728-0.484-0.81c-1.589-0.542-3.196-1.063-4.821-1.48c-1.315-0.354-2.676-0.55-4.008-0.816
			c-0.119-0.029-0.239-0.041-0.347-0.081c-1.315-0.486-2.622-0.984-3.937-1.479v-15.691c1.608-0.244,3.096-0.481,4.584-0.721
			c0.037-0.007,0.083,0,0.119-0.018c1.434-0.432,2.849-0.97,4.301-1.3c1.726-0.391,3.488-0.605,5.123-0.885
			c0.319-0.99,0.676-1.875,0.903-2.807c0.32-1.303,0.548-2.624,0.814-3.938c0.018-0.084,0.063-0.147,0.091-0.227
			c0.429-1.076,0.849-2.164,1.287-3.237c0.156-0.407,0.419-0.782,0.512-1.194c0.173-0.746,0.594-1.504-0.202-2.205
			c-0.848-0.762-1.633-1.596-2.41-2.438c-1.635-1.76-3.251-3.53-4.848-5.323c-0.622-0.697-1.571-1.418-1.644-2.204
			c-0.092-0.902,0.557-1.928,1.021-2.818c0.521-0.987,1.215-1.893,1.827-2.84c0.639-0.987,1.288-1.989,1.918-2.996
			c0.566-0.913,1.168-1.822,1.653-2.787c0.447-0.896,0.849-1.79,2.1-1.521c1.141,0.249,2.31,0.479,3.415,0.831
			c1.041,0.346,1.991,0.933,3.032,1.259c1.197,0.364,2.43,0.567,3.643,0.847c0.156,0.037,0.302,0.111,0.447,0.189
			c1.396,0.856,2.731,0.761,3.799-0.286C141.527,1118.473,144.358,1115.688,147.115,1112.986 M141.563,1168.711
			c0.411,9.345,2.566,18.059,7.68,25.86c9.66,14.729,23.495,22.3,40.936,22.818c6.585,0.193,13.086-1.351,19.287-4.054
			c5.797-2.527,10.994-5.88,15.395-10.309c4.374-4.403,7.707-9.57,10.273-15.311c2.776-6.178,3.506-12.704,4.054-19.264
			c0.219-2.68-0.355-5.477-0.849-8.174c-2.155-11.939-7.98-21.91-17.322-29.483c-9.132-7.399-19.878-11.118-31.696-10.84
			c-7.907,0.182-15.578,2.03-22.445,6.099C150.677,1135.66,142.293,1149.986,141.563,1168.711"/>
		<path fill="#1C75BC" d="M197.11,1187.028c-1.168,0.403-1.981,0.753-2.831,0.957c-0.485,0.118-1.261,0.233-1.489-0.021
			c-0.85-0.991-1.662-2.067-2.201-3.249c-0.319-0.679-0.612-0.879-1.27-0.924c-0.949-0.045-1.863,0.097-2.803-0.546
			c-0.576-0.401-1.645-0.476-2.475,0.349c-0.713,0.713-1.689,1.264-2.639,1.574c-1.717,0.568-2.42-1.121-3.497-1.908
			c-0.256-0.188-0.146-0.982-0.074-1.478c0.065-0.419,0.33-0.798,0.467-1.21c0.1-0.334,0.027-0.787,0.229-1.002
			c0.748-0.791,0.758-1.479-0.037-2.235c-0.347-0.312-0.693-0.716-0.803-1.136c-0.402-1.582-0.777-3.007-2.785-3.367
			c-1.032-0.186-1.964-0.958-2.987-1.496v-3.786c1.717-0.665,3.287-1.276,4.41-1.712c0.749-1.451,1.379-2.567,1.909-3.729
			c0.328-0.722,1.132-1.314,0.685-2.291c-0.43-0.961-0.904-1.911-1.232-2.914c-0.111-0.322,0.082-0.872,0.328-1.154
			c0.52-0.612,1.131-1.17,1.772-1.663c0.329-0.245,0.885-0.517,1.186-0.386c0.996,0.404,2.129,0.794,2.849,1.536
			c0.831,0.869,1.808,0.75,2.42,0.387c1.04-0.635,2.091-0.486,3.15-0.583c0.347-0.029,0.84-0.019,0.986-0.223
			c0.914-1.271,1.754-2.595,2.639-3.924c1.087,0.211,2.283,0.419,3.452,0.704c0.219,0.063,0.447,0.453,0.502,0.722
			c0.274,1.239,0.475,2.489,0.741,3.729c0.035,0.196,0.182,0.404,0.338,0.531c0.995,0.794,2.164,1.418,2.967,2.364
			c1.278,1.496,2.603,1.348,4.155,0.657c0.283-0.127,0.821,0,1.087,0.215c0.849,0.656,1.215,1.634,1.516,2.644
			c0.109,0.315,0.365,0.594,0.547,0.876c-1.124,1.422-2.255,2.858-3.378,4.276c0.776,1.133,0.886,2.217,0.165,3.382
			c-0.174,0.286-0.219,0.902-0.037,1.103c1.068,1.186,2.219,2.283,3.251,3.327c-0.447,0.924-0.94,1.733-1.233,2.613
			c-0.338,0.998-0.857,1.47-1.935,1.462c-1.991-0.021-4.126-0.619-5.634,1.431c-0.502,0.68-1.524,1.109-1.744,1.821
			C197.338,1184.181,197.283,1185.725,197.11,1187.028 M199.858,1169.409c0.228-5.438-4.456-9.117-8.984-9.292
			c-2.585-0.104-4.622,1.158-6.558,2.766c-2.035,1.687-2.693,4.088-2.831,6.353c-0.099,1.614,0.256,3.661,1.425,5.157
			c1.982,2.546,4.547,4.354,7.844,4.299C195.419,1178.604,200.031,1175.049,199.858,1169.409"/>
		<animateTransform attributeType="xml" attributeName="transform" type="rotate" from="0 190.049 1168.393" to="360 190.049 1168.393" dur="4s" repeatCount="indefinite"/>
	</g>
	<g id="gb3">
		<path fill="#1C75BC" d="M203.419,1337.944c0-0.367,0-0.913,0-1.462c0.02-3.479,0.065-6.95,0.037-10.418
			c-0.009-0.468-0.31-1.006-0.639-1.361c-0.439-0.482-1.096-0.783-1.581-1.248c-0.857-0.823-1.807-1.291-3.013-0.969
			c-0.814,0.22-1.634,0.448-2.43,0.766c-0.967,0.393-1.872,0.961-2.857,1.295c-1.069,0.367-2.183,0.561-3.278,0.832
			c-0.146,0.048-0.32,0.085-0.44,0.167c-1.158,0.847-2.254,0.571-2.967-0.562c-0.848-1.365-1.834-2.629-2.749-3.953
			c-0.546-0.791-1.195-1.54-1.551-2.429c-0.412-1.038,0.584-1.76,1.04-2.558c0.43-0.721,1.207-1.247,1.727-1.936
			c1.269-1.688,2.338-3.56,3.762-5.086c0.629-0.683,0.721-1.221,0.584-1.919c-0.146-0.75-0.584-1.459-0.675-2.209
			c-0.202-1.626-0.95-2.445-2.565-2.558c-0.32-0.02-0.658-0.008-0.951-0.107c-1.278-0.431-2.52-0.932-3.807-1.324
			c-1.078-0.319-2.192-0.501-3.278-0.813c-0.557-0.145-1.114-0.363-1.589-0.683c-0.33-0.237-0.685-0.688-0.695-1.043
			c-0.063-2.666-0.09-5.351-0.027-8.017c0.037-0.913,0.529-1.654,1.634-1.67c0.356,0,0.731,0,1.069-0.11
			c1.178-0.401,2.318-0.95,3.524-1.277c1.307-0.364,2.667-0.542,3.991-0.851c0.686-0.155,1.342-0.431,2-0.693
			c0.219-0.101,0.484-0.309,0.567-0.527c0.52-1.344,1.004-2.685,1.452-4.058c0.091-0.264,0.055-0.709-0.12-0.913
			c-1.588-1.771-3.013-3.66-4.301-5.688c-0.958-1.52-2.282-2.796-3.47-4.236c2.045-2.824,4.036-5.571,6.027-8.322
			c0.475,0.35,0.713,0.688,0.996,0.731c1.451,0.248,2.739,0.85,4.072,1.433c1.561,0.688,3.259,1.063,4.904,1.57
			c0.174,0.056,0.373,0.11,0.52,0.229c0.805,0.582,1.516,0.794,2.366-0.053c0.658-0.649,1.443-1.332,2.301-1.563
			c1.232-0.323,1.178-1.096,1.168-1.99c-0.008-3.545,0.038-7.094-0.045-10.657c-0.036-1.032,0.622-1.471,1.27-1.708
			c1.79-0.631,3.652-1.076,5.497-1.589c0.118-0.037,0.284,0,0.346-0.074c0.841-0.995,1.864-0.513,2.513-0.513
			c0.484,0.632,0.793,1.025,1.076,1.43c0.266,0.371,0.53,0.746,0.777,1.141c0.649,1.023,1.26,2.063,1.936,3.059
			c0.767,1.151,1.772,2.183,2.329,3.423c0.493,1.114,1.05,1.646,2.255,1.57c1.077-0.063,2.154,0.037,3.232-0.033
			c0.375-0.019,0.813-0.249,1.068-0.531c0.393-0.419,0.602-0.994,0.959-1.455c0.84-1.091,1.752-2.123,2.575-3.222
			c1.223-1.642,2.456-3.286,3.552-5.02c0.466-0.742,0.932-0.375,1.388-0.293c0.566,0.117,1.104,0.399,1.662,0.563
			c1.032,0.322,2.109,0.53,3.104,0.905c1.096,0.42,2.127,0.977,3.305,1.524v12.969c1.681,1.194,3.168,2.233,4.411,3.113
			c0.667-0.26,1.059-0.431,1.452-0.542c0.347-0.1,0.73-0.069,1.042-0.199c0.994-0.375,1.972-0.828,2.949-1.226
			c1.096-0.446,2.2-0.873,3.315-1.271c0.885-0.326,1.78-0.602,2.684-0.857c0.174-0.044,0.448-0.007,0.557,0.093
			c0.511,0.502,1.023,0.995,1.443,1.563c1.178,1.614,2.302,3.259,3.46,4.893c0.32,0.438,0.393,2.283,0.074,2.646
			c-1.151,1.345-2.301,2.677-3.434,4.027c-0.96,1.133-1.89,2.275-2.804,3.424c-0.512,0.642-1.114,1.299-0.757,2.23
			c0.136,0.363,0.511,0.638,0.621,1.002c0.347,1.232,0.639,2.483,0.922,3.646c4.056,1.259,8.044,2.502,12.018,3.753v9.972
			c-1.27,0.282-2.484,0.538-3.68,0.839c-0.868,0.211-1.735,0.456-2.585,0.75c-1.223,0.408-2.393,1.031-3.643,1.276
			c-2.11,0.42-2.813,1.068-3.005,3.147c-0.036,0.404-0.382,0.772-0.41,1.162c-0.082,0.95-0.43,2.101-0.019,2.792
			c0.886,1.511,2.229,2.75,3.305,4.146c1.252,1.626,2.42,3.326,3.443,4.722c-0.548,1.032-0.895,1.919-1.415,2.658
			c-0.85,1.194-1.745,2.376-2.767,3.407c-0.777,0.766-1.279,2.152-2.804,1.716c-0.887-0.269-1.762-0.596-2.639-0.913
			c-0.594-0.208-1.169-0.449-1.754-0.676c-1.014-0.412-2.018-0.832-3.032-1.26c-0.428-0.186-0.875-0.342-1.268-0.587
			c-0.566-0.338-2.356-0.118-2.915,0.313c-0.767,0.602-1.524,1.405-2.401,1.596c-1.223,0.268-1.151,0.999-1.142,1.827
			c0.009,3.396,0.046,6.786-0.009,10.179c0,0.554-0.355,1.263-0.785,1.619c-0.502,0.419-1.25,0.601-1.936,0.787
			c-1.206,0.317-2.438,0.545-3.662,0.839c-0.237,0.063-0.474,0.211-0.685,0.374c-0.95,0.691-3.142,0.212-3.653-0.757
			c-0.566-1.063-1.223-2.075-1.872-3.097c-0.84-1.296-1.726-2.564-2.566-3.871c-0.813-1.271-1.606-2.458-3.452-2.064
			c-0.684,0.146-1.459,0.127-2.146,0c-1.607-0.312-2.109,1.014-2.831,1.871c-1.004,1.214-1.799,2.595-2.676,3.909
			c-0.831,1.214-1.633,2.446-2.502,3.653c-0.201,0.273-0.603,0.638-0.848,0.601c-1.151-0.219-2.274-0.538-3.407-0.846
			c-0.721-0.204-1.461-0.405-2.145-0.688C205.867,1339.084,204.743,1338.546,203.419,1337.944 M248.856,1293.081
			c0.384-3.423-1.223-8.151-4.008-12.198c-5.14-7.506-12.263-11.709-21.705-11.709c-5.122,0-9.779,1.281-13.897,4.065
			c-7.644,5.196-11.598,12.438-11.634,21.843c-0.008,5.049,1.406,9.597,4.109,13.65c5.041,7.544,12.2,11.434,21.404,11.635
			c5.159,0.111,9.843-1.303,14.007-4.072C244.748,1311.246,248.72,1304.04,248.856,1293.081"/>
		<path fill="#1C75BC" d="M227.544,1306.65c-0.812,0.285-1.387,0.52-1.98,0.675c-0.328,0.074-0.868,0.156-1.032-0.015
			c-0.584-0.694-1.151-1.444-1.535-2.266c-0.219-0.479-0.419-0.612-0.885-0.648c-0.658-0.025-1.287,0.073-1.945-0.384
			c-0.41-0.267-1.141-0.33-1.726,0.245c-0.502,0.494-1.178,0.888-1.844,1.096c-1.197,0.4-1.689-0.787-2.439-1.333
			c-0.173-0.13-0.101-0.676-0.045-1.023c0.037-0.29,0.228-0.554,0.32-0.848c0.073-0.227,0.018-0.549,0.165-0.693
			c0.511-0.558,0.529-1.021-0.037-1.552c-0.229-0.229-0.475-0.506-0.557-0.795c-0.273-1.105-0.548-2.102-1.936-2.347
			c-0.721-0.13-1.359-0.668-2.082-1.043v-2.64c1.197-0.464,2.292-0.896,3.079-1.195c0.52-1.013,0.949-1.789,1.322-2.595
			c0.238-0.512,0.794-0.928,0.484-1.604c-0.311-0.668-0.629-1.333-0.868-2.026c-0.064-0.229,0.065-0.616,0.239-0.806
			c0.355-0.432,0.785-0.813,1.232-1.162c0.228-0.171,0.611-0.355,0.82-0.271c0.704,0.282,1.489,0.557,1.991,1.069
			c0.577,0.607,1.26,0.526,1.68,0.271c0.731-0.434,1.462-0.345,2.202-0.399c0.247-0.02,0.584-0.009,0.686-0.156
			c0.647-0.883,1.224-1.805,1.844-2.739c0.748,0.155,1.588,0.293,2.401,0.493c0.156,0.037,0.32,0.313,0.355,0.505
			c0.193,0.865,0.331,1.734,0.513,2.603c0.019,0.135,0.128,0.278,0.237,0.364c0.684,0.558,1.506,0.995,2.073,1.655
			c0.885,1.039,1.807,0.928,2.885,0.453c0.201-0.089,0.576,0,0.758,0.147c0.594,0.464,0.84,1.146,1.059,1.841
			c0.074,0.221,0.256,0.412,0.384,0.625c-0.785,0.982-1.58,1.989-2.355,2.978c0.538,0.783,0.612,1.529,0.109,2.354
			c-0.119,0.191-0.146,0.623-0.02,0.769c0.75,0.82,1.543,1.596,2.256,2.32c-0.301,0.646-0.649,1.214-0.849,1.813
			c-0.237,0.694-0.603,1.025-1.352,1.025c-1.388-0.012-2.875-0.442-3.927,0.99c-0.346,0.469-1.068,0.77-1.213,1.271
			C227.7,1304.671,227.673,1305.748,227.544,1306.65 M229.462,1294.369c0.154-3.778-3.104-6.348-6.264-6.475
			c-1.807-0.069-3.214,0.813-4.565,1.928c-1.425,1.188-1.881,2.857-1.973,4.429c-0.072,1.132,0.173,2.565,0.977,3.597
			c1.389,1.775,3.188,3.033,5.479,2.996C226.366,1300.788,229.582,1298.305,229.462,1294.369"/>
		<animateTransform attributeType="xml" attributeName="transform" type="rotate" from="0 223.185 1294.482" to="-360 223.185 1294.482" dur="3s" repeatCount="indefinite"/>
	</g>
	<g id="gb2">
		<path fill="#1C75BC" d="M100.601,1213.281c0.292,1.344,0.639,2.613,0.803,3.883c0.1,0.884,0.393,1.607,1.178,1.928
			c1.278,0.521,2.612,0.913,3.927,1.34c1.771,0.575,2.657-0.721,3.589-1.789c1.772-2.054,2.301-2.209,4.1-1.065
			c0.85,0.539,1.779,0.938,2.612,1.516c0.629,0.431,1.479,0.857,1.178,1.896c-0.201,0.713-0.457,1.389-0.676,2.094
			c-0.256,0.839-0.53,1.678-0.73,2.528c-0.037,0.182,0.146,0.456,0.292,0.631c0.857,0.949,1.726,1.89,2.603,2.811
			c0.721,0.749,1.168,1.945,2.602,1.462c0.858-0.301,1.753-0.475,2.639-0.729c0.447-0.138,0.905-0.282,1.333-0.483
			c0.577-0.267,0.969-0.2,1.206,0.457c0.266,0.713,0.549,1.44,0.924,2.108c0.611,1.076,1.314,2.09,1.936,3.159
			c0.063,0.101-0.111,0.412-0.248,0.55c-1.032,0.977-2.108,1.908-3.131,2.884c-0.694,0.669-1.37,1.626-0.758,2.458
			c0.63,0.876,0.393,1.771,0.658,2.617c0.318,0.969,0.474,2.23,1.524,2.669c1.096,0.464,2.32,0.713,3.517,0.776
			c1.105,0.073,1.434,0.481,1.379,1.524c-0.074,1.44-0.028,2.877-0.028,4.312c-0.009,1.659-0.393,1.971-2.045,2.123
			c-1.205,0.122-2.419,0.404-3.581,0.771c-0.355,0.107-0.739,0.716-0.785,1.132c-0.119,1.522-0.667,2.893-1.342,4.235
			c-0.127,0.271-0.064,0.821,0.129,1.044c1.031,1.173,2.107,2.342,3.25,3.422c0.584,0.546,0.876,0.847,0.182,1.578
			c-0.647,0.668-1.031,1.589-1.524,2.409c-0.265,0.431-0.585,0.851-0.73,1.318c-0.42,1.365-1.169,1.65-2.439,0.863
			c-0.292-0.17-0.684-0.154-1.023-0.252c-0.502-0.167-0.996-0.44-1.516-0.513c-0.713-0.093-1.708-0.359-2.119-0.011
			c-1.425,1.243-2.675,2.684-3.944,4.108c-0.229,0.257-0.274,0.787-0.219,1.15c0.064,0.502,0.32,0.97,0.474,1.463
			c0.101,0.331,0.092,0.713,0.256,0.984c0.857,1.362,0.621,2.138-0.693,2.857c-1.041,0.564-2.174,1.024-3.142,1.7
			c-0.958,0.664-1.899,0.729-2.621-0.111c-0.612-0.709-1.168-1.451-1.809-2.139c-0.666-0.717-1.497-1.166-2.51-0.839
			c-0.393,0.13-0.704,0.531-1.105,0.612c-1.37,0.301-2.767,0.531-4.126,0.787c-0.559,1.846-1.051,3.578-1.618,5.305
			c-0.073,0.201-0.593,0.375-0.885,0.35c-2.019-0.203-4.045-0.448-6.155-0.697c-0.247-1.206-0.585-2.417-0.731-3.672
			c-0.164-1.414-0.639-1.941-2.099-2.017c-0.466-0.037-0.94-0.106-1.379-0.256c-1.032-0.356-2.028-0.794-3.049-1.169
			c-0.165-0.063-0.465-0.045-0.577,0.066c-0.793,0.782-1.598,1.56-2.318,2.417c-0.85,1.006-2.1,1.425-2.767,0.887
			c-0.813-0.668-1.68-1.28-2.547-1.89c-0.805-0.562-1.654-1.059-2.293-1.463c0.64-2.046,1.179-3.741,1.717-5.476
			c-1.068-1.174-2.2-2.478-3.406-3.709c-0.557-0.587-1.178-1.199-2.127-0.896c-0.721,0.233-1.415,0.521-2.137,0.677
			c-0.885,0.2-1.78,0.289-2.749,0.438c-0.264-0.631-0.546-1.474-0.957-2.246c-0.348-0.659-0.95-1.18-1.233-1.845
			c-0.347-0.806-1.525-1.6-0.22-2.603c0.951-0.731,1.792-1.607,2.713-2.368c0.84-0.676,1.442-1.604,0.895-2.491
			c-0.693-1.088-0.539-2.172-0.658-3.285c-0.127-1.154-0.994-1.727-1.908-2.02c-1.397-0.469-2.866-0.685-4.501-1.039
			c0-2.15-0.055-4.366,0.055-6.586c0.018-0.364,0.73-0.885,1.215-0.995c1.671-0.395,3.378-0.631,5.077-0.942
			c0.302-1.231,0.576-2.454,0.886-3.668c0.045-0.192,0.356-0.338,0.383-0.52c0.074-0.688,0.384-1.639,0.055-2.058
			c-0.895-1.121-2.136-1.972-3.104-3.048c-0.539-0.604-1.662-1.337-0.283-2.302c0.301-0.223,0.494-0.613,0.676-0.962
			c0.539-0.995,0.969-2.09,1.635-3.011c0.419-0.567,1.104-1.113,2.018-0.694c0.53,0.238,1.087,0.42,1.635,0.632
			c0.346,0.137,0.702,0.289,1.049,0.415c0.942,0.313,1.981,0.943,2.858,0.193c1.143-0.978,2.027-2.253,3.141-3.248
			c0.512-0.457,0.942-0.999,0.502-1.382c-0.72-0.639-0.465-1.352-0.583-2.046c-0.055-0.346-0.045-0.75-0.229-1.021
			c-0.73-1.088-0.684-2.221,0.266-2.877c0.812-0.559,1.689-0.995,2.537-1.481c0.412-0.227,0.785-0.563,1.215-0.639
			c0.64-0.107,1.498-0.289,1.918,0.019c0.868,0.64,1.397,1.716,2.265,2.385c0.895,0.668,1.434,2.832,3.206,1.087
			c0.044-0.048,0.154,0,0.237-0.02c1.452-0.293,2.904-0.594,4.155-0.85c0.63-2.172,1.224-4.21,1.836-6.293
			c0.328,0,0.601-0.037,0.875,0C96.545,1212.817,98.546,1213.055,100.601,1213.281 M74.822,1250.513
			c-0.648,4.091,0.967,7.996,3.223,11.534c4.21,6.589,10.748,9.659,18.281,9.886c4.584,0.138,9.241-1.27,12.93-4.336
			c5.944-4.948,9.313-11.196,8.684-19.167c-0.31-3.86-1.443-7.559-3.735-10.666c-4.648-6.317-10.948-9.613-18.883-9.414
			c-4.64,0.126-8.95,1.696-12.428,4.556C77.571,1237.289,74.265,1242.932,74.822,1250.513"/>
		<path fill="#1C75BC" d="M100.801,1261.616c-0.794,0.282-1.352,0.52-1.928,0.668c-0.328,0.069-0.857,0.145-1.004-0.02
			c-0.575-0.687-1.141-1.414-1.506-2.213c-0.21-0.456-0.419-0.602-0.858-0.62c-0.648-0.044-1.26,0.063-1.909-0.382
			c-0.393-0.274-1.114-0.33-1.68,0.237c-0.482,0.482-1.151,0.857-1.798,1.064c-1.159,0.388-1.644-0.757-2.374-1.292
			c-0.174-0.13-0.101-0.668-0.055-1.01c0.045-0.271,0.228-0.546,0.32-0.819c0.073-0.228,0.018-0.538,0.154-0.684
			c0.512-0.539,0.521-0.995-0.018-1.515c-0.238-0.212-0.484-0.494-0.549-0.78c-0.273-1.064-0.539-2.034-1.898-2.279
			c-0.704-0.13-1.325-0.66-2.036-1.017v-2.584c1.176-0.445,2.237-0.857,3.013-1.158c0.502-0.987,0.921-1.745,1.287-2.532
			c0.238-0.488,0.777-0.908,0.475-1.569c-0.292-0.646-0.621-1.295-0.84-1.979c-0.072-0.211,0.055-0.586,0.219-0.774
			c0.357-0.421,0.768-0.807,1.215-1.134c0.21-0.167,0.594-0.349,0.795-0.267c0.684,0.274,1.452,0.538,1.943,1.05
			c0.559,0.583,1.225,0.502,1.635,0.257c0.721-0.431,1.424-0.327,2.155-0.394c0.229-0.026,0.566-0.02,0.667-0.156
			c0.62-0.857,1.186-1.76,1.79-2.665c0.739,0.137,1.552,0.282,2.346,0.482c0.156,0.037,0.301,0.305,0.348,0.493
			c0.191,0.843,0.318,1.688,0.492,2.531c0.037,0.126,0.129,0.274,0.247,0.364c0.667,0.538,1.461,0.969,2.009,1.607
			c0.877,1.013,1.772,0.913,2.821,0.444c0.191-0.09,0.557,0,0.74,0.138c0.585,0.448,0.831,1.125,1.032,1.801
			c0.072,0.219,0.256,0.412,0.383,0.602c-0.767,0.97-1.543,1.945-2.302,2.914c0.521,0.759,0.594,1.5,0.111,2.302
			c-0.12,0.183-0.146,0.603-0.02,0.738c0.721,0.807,1.498,1.563,2.202,2.258c-0.311,0.639-0.641,1.185-0.84,1.778
			c-0.221,0.675-0.577,1.006-1.315,0.994c-1.351-0.007-2.813-0.416-3.835,0.978c-0.329,0.459-1.032,0.75-1.179,1.243
			C100.956,1259.678,100.919,1260.74,100.801,1261.616 M102.673,1249.645c0.155-3.697-3.032-6.199-6.118-6.318
			c-1.754-0.063-3.132,0.795-4.456,1.882c-1.379,1.151-1.827,2.777-1.918,4.317c-0.072,1.105,0.173,2.483,0.958,3.509
			c1.353,1.726,3.104,2.959,5.341,2.922C99.649,1255.898,102.783,1253.479,102.673,1249.645"/>
		<animateTransform attributeType="xml" attributeName="transform" type="rotate" from="0 96.055 1249.924" to="-360 96.055 1249.924" dur="2s" repeatCount="indefinite"/>
	</g>
	<g id="gb1">
		<path fill="#1C75BC" d="M173.844,1259.57c-0.366,0.619-0.741,1.185-1.042,1.777c-0.639,1.236-2.146,2.303-1.618,3.782
			c0.53,1.504,0.614,3.004,0.731,4.529c0.009,0.119,0.191,0.219,0.292,0.327c0.831,0.924,1.662,1.781,2.895,2.246
			c1.278,0.505,2.083,2.2,1.698,3.243c-0.291,0.766-0.639,1.507-0.932,2.19c-1.964,0.338-3.999,0.687-5.853,1.006
			c-0.32,0.564-0.484,1.032-0.786,1.377c-0.748,0.861-1.58,1.652-2.337,2.521c-0.667,0.765-0.95,1.462-0.347,2.595
			c0.465,0.884,0.54,2.354,0.101,3.229c-0.403,0.807-1.698,1.188-2.612,1.708c-0.374,0.211-0.813,0.301-1.352,0.505
			c-1.223-1.198-2.555-2.514-3.927-3.81c-0.136-0.13-0.529-0.146-0.703-0.037c-1.214,0.688-2.374,0.568-3.634,0.071
			c-0.566-0.228-1.488-0.279-1.926,0.04c-1.297,0.921-2.42,2.072-3.653,3.093c-0.146,0.119-0.53,0.082-0.73-0.019
			c-0.631-0.356-1.178-0.865-1.836-1.17c-1.899-0.873-2.22-2.017-1.323-3.887c0.383-0.795,0.53-1.745-0.303-2.714
			c-0.867-1.021-2.172-1.764-2.438-3.305c-0.062-0.363-0.666-0.823-1.095-0.913c-1.461-0.301-2.958-0.468-4.483-0.688
			c-0.274-1.357-0.574-2.527-0.712-3.716c-0.119-1.146,0.995-2.521,2.128-2.811c1.123-0.306,2.081-1.581,2.182-2.732
			c0.064-0.602,0.447-1.177,0.502-1.789c0.1-1.039,0.329-2.193,0.027-3.159c-0.301-0.938-1.242-1.662-1.752-2.558
			c-0.184-0.293,0.008-0.896,0.2-1.271c0.248-0.502,0.776-0.875,0.986-1.378c0.584-1.45,3.042-2.175,4.284-1.184
			c0.601,0.472,2.82,0.697,3.423,0.39c1.169-0.611,2.355-1.194,3.533-1.797c0.375-0.404,0.723-1.006,0.997-1.637
			c0.301-0.746,0.492-1.545,0.84-2.276c0.238-0.481,0.557-1.047,1.004-1.295c1.863-1.059,4.876,0.4,5.342,2.468
			c0.229,1.021,0.64,2.01,0.85,2.617c1.342,0.706,2.428,1.309,3.524,1.831c0.822,0.396,1.553,1.222,2.629,0.627
			c0.403-0.219,0.868-0.345,1.297-0.53c0.419-0.151,0.849-0.264,1.215-0.493c0.739-0.457,2.127-0.278,2.712,0.438
			C172.52,1257.852,173.175,1258.713,173.844,1259.57 M156,1280.838c0.045,0,0.083,0,0.118,0c2.074,0.201,3.891-0.423,5.644-1.525
			c1.553-0.957,2.73-2.302,3.479-3.834c1.096-2.221,1.252-4.785,0.731-7.157c-0.493-2.231-1.972-4.047-3.808-5.509
			c-2.393-1.901-5.122-2.521-8.063-2.064c-0.896,0.138-1.67,0.906-2.575,1.145c-1.79,0.475-2.603,2.09-3.879,3.121
			c-0.43,0.356-0.758,0.958-0.905,1.516c-0.338,1.279-0.566,2.584-0.777,3.883c-0.083,0.546-0.028,1.121,0,1.667
			c0.073,1.667,0.758,3.114,1.671,4.451c0.567,0.813,1.232,1.597,2.008,2.233c0.686,0.579,1.553,0.943,2.366,1.338
			c0.594,0.281,1.206,0.563,1.844,0.664c0.694,0.118,1.434,0.025,2.146,0.025C156,1280.801,156,1280.819,156,1280.838"/>
		<animateTransform attributeType="xml" attributeName="transform" type="rotate" from="0 156.403 1270.203" to="360 156.403 1270.203" dur="1s" repeatCount="indefinite"/>
	</g>
</g>
<g id="gear_t">
	<g id="gt3">
		<path fill="#1C75BC" d="M1738.235,262.533c-0.368,0.622-0.75,1.183-1.056,1.776c-0.628,1.236-2.135,2.3-1.615,3.785
			c0.527,1.507,0.625,2.99,0.742,4.525c0.008,0.119,0.188,0.219,0.29,0.323c0.831,0.917,1.663,1.786,2.888,2.251
			c1.285,0.492,2.088,2.205,1.701,3.246c-0.29,0.761-0.635,1.507-0.929,2.192c-1.968,0.332-3.994,0.679-5.854,1.004
			c-0.315,0.566-0.482,1.03-0.783,1.374c-0.75,0.863-1.585,1.658-2.339,2.526c-0.668,0.765-0.938,1.452-0.346,2.591
			c0.469,0.882,0.538,2.357,0.104,3.229c-0.404,0.806-1.696,1.181-2.617,1.711c-0.378,0.204-0.806,0.301-1.351,0.501
			c-1.227-1.199-2.559-2.524-3.928-3.807c-0.139-0.128-0.535-0.146-0.706-0.041c-1.214,0.689-2.368,0.57-3.63,0.073
			c-0.568-0.223-1.485-0.279-1.928,0.037c-1.296,0.913-2.425,2.071-3.652,3.096c-0.148,0.119-0.534,0.085-0.725-0.024
			c-0.635-0.351-1.185-0.857-1.838-1.16c-1.908-0.88-2.22-2.021-1.325-3.902c0.38-0.787,0.521-1.731-0.301-2.713
			c-0.865-1.017-2.175-1.762-2.436-3.291c-0.063-0.375-0.676-0.826-1.1-0.913c-1.463-0.31-2.951-0.472-4.491-0.689
			c-0.264-1.356-0.571-2.535-0.697-3.722c-0.135-1.143,0.99-2.517,2.115-2.808c1.125-0.301,2.082-1.587,2.193-2.73
			c0.052-0.602,0.436-1.182,0.49-1.786c0.104-1.045,0.327-2.196,0.03-3.159c-0.298-0.939-1.24-1.667-1.765-2.562
			c-0.167-0.293,0.025-0.895,0.215-1.27c0.254-0.498,0.772-0.871,0.978-1.387c0.59-1.453,3.048-2.16,4.291-1.175
			c0.602,0.466,2.817,0.7,3.42,0.39c1.18-0.622,2.364-1.197,3.541-1.795c0.367-0.41,0.721-1.004,0.979-1.639
			c0.319-0.75,0.506-1.548,0.851-2.27c0.233-0.483,0.561-1.06,1.006-1.301c1.86-1.062,4.875,0.403,5.343,2.465
			c0.229,1.024,0.643,2.01,0.844,2.625c1.351,0.709,2.424,1.303,3.525,1.827c0.824,0.39,1.544,1.221,2.632,0.627
			c0.408-0.223,0.869-0.347,1.304-0.525c0.404-0.164,0.847-0.269,1.215-0.498c0.733-0.451,2.127-0.28,2.706,0.429
			C1736.917,260.813,1737.566,261.676,1738.235,262.533 M1720.396,283.795c0.029,0,0.07,0,0.118,0
			c2.075,0.206,3.885-0.429,5.645-1.524c1.54-0.969,2.721-2.301,3.467-3.831c1.092-2.227,1.255-4.785,0.729-7.165
			c-0.49-2.228-1.964-4.044-3.803-5.505c-2.391-1.895-5.118-2.517-8.063-2.064c-0.892,0.137-1.675,0.904-2.569,1.143
			c-1.789,0.47-2.603,2.081-3.887,3.126c-0.436,0.345-0.757,0.959-0.905,1.517c-0.338,1.27-0.567,2.578-0.771,3.879
			c-0.086,0.54-0.026,1.11,0,1.672c0.069,1.663,0.757,3.115,1.663,4.438c0.567,0.82,1.242,1.605,2.016,2.24
			c0.68,0.578,1.552,0.938,2.368,1.334c0.583,0.286,1.211,0.566,1.838,0.667c0.705,0.113,1.437,0.024,2.157,0.024
			C1720.396,283.764,1720.396,283.781,1720.396,283.795"/>
		<animateTransform attributeType="xml" attributeName="transform" type="rotate" from="0 1720.794 273.163" to="-360 1720.794 273.163" dur="1s" repeatCount="indefinite"/>
	</g>
	<g id="gt2">
		<path fill="#1C75BC" d="M1711.506,115.941c-0.126-0.516-0.301-1.11-0.423-1.719c-0.082-0.421-0.037-0.878-0.156-1.292
			c-0.399-1.422-0.901-2.829-1.262-4.262c-0.342-1.366-0.546-2.777-0.832-4.158c-0.037-0.156-0.267-0.262-0.386-0.403
			c-0.599-0.804-0.135-2.443,0.754-2.834c1.072-0.477,2.16-0.959,3.191-1.529c1.586-0.884,3.114-1.851,4.682-2.754
			c1.181-0.698,2.347-1.433,3.59-1.99c0.576-0.26,1.325-0.627,1.936,0.334c0.68,1.077,1.593,2.02,2.469,2.975
			c1.533,1.667,3.096,3.291,4.681,4.898c0.954,0.965,1.815,2.17,3.501,1.63c0.876-0.297,1.797-0.492,2.682-0.78
			c1.27-0.412,2.49-0.973,3.789-1.273c1.652-0.384,3.346-0.568,4.85-0.813c0.375-0.722,0.775-1.27,0.946-1.886
			c0.342-1.288,0.553-2.602,0.827-3.903c0.025-0.109,0.041-0.238,0.09-0.343c0.407-1.069,0.904-2.109,1.218-3.204
			c0.394-1.389,0.623-2.822,0.938-4.316c0.526,0,0.994,0,1.475,0c4.188,0.024,8.378,0.043,12.563,0.065
			c1.647,0.013,2.164,0.592,2.339,2.228c0.171,1.674,0.521,3.332,0.79,4.989c0.016,0.078,0.026,0.169,0.063,0.23
			c0.815,1.533,0.969,3.244,1.247,4.896c0.253,1.513,0.501,1.841,2.057,2.004c1.399,0.146,2.773,0.525,4.158,0.794
			c0.041,0.011,0.07,0.048,0.107,0.065c1.058,0.41,2.111,0.841,3.17,1.246c1.203,0.462,2.384,0.936,3.598,1.333
			c0.382,0.119,1.021,0.167,1.236-0.059c2.71-2.703,5.35-5.479,8.044-8.201c0.608-0.62,1.276-1.362,2.323-0.92
			c0.306,0.137,0.521,0.484,0.82,0.653c1.479,0.816,3.004,1.548,4.444,2.424c1.719,1.06,3.37,2.224,5.041,3.353
			c0.819,0.551,1.622,1.132,2.298,1.6c-0.49,1.24-0.954,2.229-1.271,3.271c-0.342,1.119-0.546,2.283-0.813,3.424
			c-0.025,0.113-0.081,0.213-0.122,0.317c-0.432,1.253-0.848,2.499-1.292,3.746c-0.148,0.434-0.436,0.85-0.53,1.292
			c-0.097,0.438-0.22,1.095,0.003,1.325c1.708,1.739,3.546,3.356,5.261,5.086c1.5,1.526,2.906,3.15,4.321,4.698
			c0.631-0.105,1.358-0.225,2.082-0.325c0.351-0.056,0.713-0.05,1.047-0.146c1.355-0.41,2.686-0.919,4.059-1.26
			c1.398-0.347,2.844-0.538,4.27-0.826c0.152-0.031,0.265-0.243,0.416-0.354c0.64-0.494,1.771-0.325,2.022,0.26
			c0.498,1.201,0.973,2.42,1.574,3.563c0.604,1.132,1.393,2.157,2.041,3.261c0.954,1.658,1.945,3.31,2.752,5.036
			c0.248,0.525,0.212,1.581-0.148,1.93c-2.376,2.268-4.878,4.403-7.328,6.599c-1.114,1.01-2.254,1.999-1.7,3.792
			c0.302,1.01,0.523,2.045,0.79,3.08c0.017,0.041,0.041,0.072,0.054,0.109c0.427,1.415,0.88,2.825,1.275,4.245
			c0.249,0.882,0.628,1.786,0.583,2.667c-0.081,1.917,0.603,2.699,2.591,2.73c1.06,0.013,2.095,0.822,3.179,1.155
			c0.844,0.266,1.712,0.15,2.621,0.667c1.096,0.62,2.543,0.644,3.85,0.859c1.103,0.172,1.634,1.173,1.166,2.205
			c-0.167,0.373-0.228,0.837-0.23,1.256c-0.041,3.828-0.104,7.659-0.063,11.49c0.011,1.21-0.383,1.667-1.57,1.578
			c-0.55-0.042-1.125,0.021-1.663,0.148c-1.645,0.39-3.267,0.886-4.915,1.261c-1.467,0.313-2.955,0.525-4.437,0.8
			c-0.138,0.03-0.26,0.16-0.371,0.264c-1.158,1.022-0.872,2.576-1.362,3.844c-0.494,1.279-0.591,2.718-0.86,4.082
			c-0.022,0.07-0.057,0.141-0.082,0.219c-0.432,1.114-0.854,2.239-1.296,3.353c-0.142,0.369-0.445,0.712-0.485,1.091
			c-0.063,0.688-0.253,1.596,0.089,2.053c0.675,0.932,1.719,1.582,2.531,2.417c2.165,2.218,4.296,4.477,6.46,6.749
			c-0.212,0.182-0.505,0.327-0.62,0.557c-0.564,1.043-1.003,2.164-1.615,3.172c-0.854,1.405-1.83,2.73-2.751,4.085
			c-0.223,0.325-0.456,0.646-0.66,0.983c-0.472,0.746-0.936,1.493-1.378,2.265c-0.378,0.665-0.724,1.344-1.154,2.149
			c-1.146-0.286-2.441-0.566-3.696-0.954c-1.089-0.334-2.123-0.841-3.216-1.182c-1.072-0.334-2.187-0.541-3.273-0.826
			c-0.126-0.033-0.196-0.308-0.305-0.315c-0.937-0.087-2.095-0.509-2.767-0.11c-1.121,0.648-1.964,1.799-2.865,2.79
			c-1.911,2.118-3.791,4.258-6.321,5.698c-0.795,0.442-1.154,1.903-0.885,2.656c0.479,1.342,0.978,2.675,1.325,4.044
			c0.367,1.444,0.558,2.937,0.828,4.407c0.019,0.1,0.074,0.211,0.141,0.306c1.073,1.643,0.596,3.031-1.161,3.622
			c-0.676,0.219-1.296,0.635-1.924,0.98c-0.683,0.368-1.347,0.787-2.049,1.138c-0.68,0.347-1.418,0.585-2.09,0.941
			c-1.158,0.631-2.294,1.296-3.423,1.962c-0.731,0.429-1.44,0.885-2.201,1.356c-1.434-1.411-2.959-2.817-4.369-4.343
			c-0.914-0.98-1.582-2.187-2.487-3.172c-0.632-0.7-1.451-1.648-2.234-1.691c-1.34-0.066-2.732,0.442-4.084,0.787
			c-1.521,0.397-2.995,0.958-4.536,1.288c-1.696,0.364-3.434,0.539-5.147,0.808c-0.164,0.032-0.302,0.206-0.453,0.313
			c-1.114,0.784-0.754,2.172-1.301,3.225c-0.602,1.134-0.607,2.57-0.88,3.872c-0.021,0.11-0.069,0.225-0.11,0.333
			c-0.415,1.188-1.072,2.357-1.188,3.571c-0.119,1.303-0.575,1.617-1.752,1.529c-3.314-0.25-6.619-0.453-9.938-0.648
			c-1.035-0.061-2.071-0.017-3.11-0.031c-1.195-0.019-1.656-0.535-1.793-1.749c-0.208-1.682-0.517-3.356-0.776-5.038
			c-0.011-0.041-0.011-0.076-0.021-0.117c-0.445-1.509-1.002-3.001-1.292-4.538c-0.196-1.077-0.709-1.463-1.696-1.519
			c-0.59-0.03-1.202-0.044-1.763-0.204c-1.285-0.356-2.547-0.839-3.824-1.214c-1.072-0.315-2.205-0.475-3.248-0.85
			c-0.762-0.278-1.396-0.967-2.164-1.149c-0.771-0.184-1.94-0.31-2.425,0.119c-2.933,2.589-5.731,5.34-8.563,8.039
			c-0.134,0.119-0.375,0.303-0.457,0.26c-0.594-0.308-1.177-0.666-1.744-1.017c-0.97-0.607-1.924-1.229-2.889-1.83
			c-0.951-0.59-1.92-1.128-2.854-1.741c-0.872-0.57-1.67-1.24-2.558-1.789c-1.039-0.643-2.132-1.199-3.066-1.715
			c1.329-4.238,2.614-8.353,3.961-12.644c-3.423-3.119-6.585-6.775-9.704-10.807c-0.301,0.015-0.916-0.056-1.462,0.097
			c-1.318,0.369-2.577,0.936-3.895,1.258c-1.444,0.368-2.934,0.563-4.396,0.828c-0.082,0.013-0.178,0.009-0.23,0.056
			c-1.123,1.158-2.485,0.441-3.627,0.586c-0.418-0.954-0.729-1.793-1.136-2.569c-0.88-1.667-1.812-3.3-2.71-4.954
			c-0.293-0.541-0.497-1.129-0.813-1.648c-0.62-1.023-1.422-1.958-1.901-3.046c-0.245-0.557-0.229-1.63,0.138-1.994
			c1.366-1.358,2.951-2.476,4.389-3.768c1.626-1.459,3.182-3.009,4.756-4.529c0.24-0.234,0.598-0.579,0.563-0.81
			c-0.16-0.842-0.448-1.661-0.721-2.478c-0.423-1.301-1.01-2.562-1.271-3.896c-0.394-1.99-0.537-4.02-0.823-6.025
			c-0.048-0.297-0.248-0.731-0.476-0.813c-1.593-0.547-3.203-1.058-4.83-1.483c-1.313-0.347-2.673-0.553-4.006-0.819
			c-0.113-0.022-0.236-0.035-0.353-0.076c-1.308-0.494-2.613-0.982-3.924-1.476v-15.692c1.604-0.256,3.085-0.494,4.577-0.722
			c0.037-0.009,0.073-0.009,0.119-0.017c1.433-0.434,2.848-0.969,4.303-1.303c1.719-0.388,3.479-0.611,5.11-0.88
			c0.331-0.991,0.685-1.878,0.906-2.811c0.323-1.299,0.549-2.625,0.82-3.938c0.015-0.082,0.063-0.15,0.093-0.223
			c0.423-1.079,0.847-2.165,1.277-3.249c0.167-0.401,0.423-0.774,0.522-1.187c0.17-0.739,0.582-1.501-0.204-2.205
			c-0.847-0.763-1.634-1.598-2.413-2.437c-1.63-1.764-3.252-3.531-4.845-5.324c-0.624-0.7-1.578-1.429-1.647-2.205
			c-0.085-0.906,0.553-1.927,1.023-2.817c0.523-0.991,1.211-1.896,1.819-2.84c0.646-1.002,1.296-1.992,1.923-3
			c0.568-0.913,1.162-1.823,1.652-2.776c0.452-0.904,0.846-1.799,2.097-1.53c1.146,0.247,2.311,0.475,3.419,0.832
			c1.04,0.342,1.994,0.932,3.037,1.255c1.181,0.371,2.428,0.561,3.642,0.85c0.152,0.032,0.301,0.1,0.438,0.186
			c1.407,0.859,2.735,0.754,3.798-0.282C1705.908,121.436,1708.744,118.649,1711.506,115.941 M1705.96,171.671
			c0.4,9.348,2.551,18.057,7.67,25.862c9.655,14.732,23.491,22.302,40.939,22.817c6.589,0.193,13.077-1.355,19.276-4.054
			c5.803-2.524,10.992-5.88,15.399-10.305c4.38-4.407,7.703-9.578,10.279-15.313c2.766-6.181,3.512-12.702,4.05-19.261
			c0.223-2.68-0.356-5.483-0.848-8.176c-2.163-11.935-7.984-21.908-17.328-29.487c-9.129-7.391-19.875-11.113-31.691-10.834
			c-7.907,0.184-15.577,2.032-22.448,6.101C1715.066,138.62,1706.681,152.946,1705.96,171.671"/>
		<path fill="#1C75BC" d="M1761.492,189.987c-1.158,0.399-1.979,0.746-2.832,0.961c-0.479,0.119-1.26,0.229-1.479-0.033
			c-0.851-0.991-1.663-2.064-2.209-3.237c-0.314-0.679-0.611-0.885-1.272-0.928c-0.942-0.044-1.85,0.097-2.791-0.545
			c-0.58-0.397-1.638-0.476-2.48,0.353c-0.709,0.702-1.686,1.258-2.646,1.574c-1.708,0.557-2.417-1.125-3.482-1.917
			c-0.26-0.193-0.152-0.979-0.078-1.472c0.057-0.419,0.33-0.798,0.461-1.218c0.107-0.323,0.033-0.781,0.229-0.991
			c0.746-0.804,0.771-1.479-0.041-2.238c-0.334-0.308-0.688-0.715-0.798-1.144c-0.4-1.57-0.779-2.992-2.78-3.356
			c-1.032-0.189-1.96-0.959-2.988-1.5v-3.783c1.72-0.667,3.281-1.281,4.417-1.713c0.746-1.452,1.366-2.571,1.901-3.729
			c0.33-0.72,1.132-1.325,0.694-2.294c-0.446-0.958-0.914-1.912-1.244-2.912c-0.107-0.325,0.082-0.871,0.326-1.158
			c0.523-0.607,1.137-1.164,1.781-1.658c0.315-0.247,0.88-0.516,1.178-0.397c1.003,0.404,2.131,0.802,2.852,1.548
			c0.831,0.865,1.813,0.75,2.416,0.382c1.051-0.635,2.091-0.494,3.16-0.579c0.341-0.033,0.835-0.019,0.987-0.225
			c0.909-1.27,1.748-2.593,2.628-3.926c1.088,0.215,2.283,0.419,3.456,0.707c0.22,0.056,0.444,0.453,0.513,0.722
			c0.268,1.236,0.472,2.483,0.724,3.726c0.037,0.202,0.187,0.406,0.35,0.533c0.983,0.794,2.157,1.421,2.963,2.366
			c1.276,1.498,2.603,1.348,4.149,0.659c0.282-0.13,0.82,0,1.096,0.204c0.847,0.667,1.207,1.643,1.515,2.643
			c0.097,0.323,0.368,0.604,0.55,0.887c-1.121,1.428-2.257,2.858-3.382,4.277c0.779,1.128,0.876,2.214,0.167,3.378
			c-0.175,0.288-0.216,0.906-0.037,1.106c1.069,1.181,2.213,2.281,3.248,3.323c-0.453,0.928-0.938,1.733-1.238,2.607
			c-0.331,0.995-0.848,1.479-1.936,1.468c-1.986-0.022-4.124-0.624-5.628,1.431c-0.497,0.68-1.525,1.108-1.752,1.821
			C1761.719,187.14,1761.675,188.688,1761.492,189.987 M1764.251,172.369c0.219-5.437-4.459-9.116-8.991-9.288
			c-2.584-0.108-4.613,1.154-6.549,2.766c-2.042,1.685-2.699,4.085-2.836,6.346c-0.101,1.628,0.252,3.666,1.418,5.158
			c1.982,2.546,4.559,4.356,7.848,4.303C1759.804,181.564,1764.418,178.009,1764.251,172.369"/>
		<animateTransform attributeType="xml" attributeName="transform" type="rotate" from="0 1754.445 171.351" to="360 1754.445 171.351" dur="3s" repeatCount="indefinite"/>
	</g>
	<g id="gt1">
		<path fill="#1C75BC" d="M1767.808,340.904c0-0.365,0-0.913,0-1.47c0.021-3.465,0.063-6.94,0.037-10.411
			c-0.008-0.464-0.301-1.014-0.635-1.364c-0.453-0.488-1.096-0.785-1.586-1.242c-0.861-0.828-1.808-1.288-3.011-0.969
			c-0.82,0.215-1.638,0.445-2.424,0.759c-0.978,0.392-1.879,0.963-2.866,1.297c-1.063,0.368-2.184,0.561-3.277,0.839
			c-0.151,0.041-0.309,0.078-0.438,0.164c-1.154,0.846-2.253,0.575-2.966-0.561c-0.848-1.364-1.839-2.625-2.756-3.95
			c-0.542-0.783-1.194-1.548-1.544-2.428c-0.411-1.043,0.575-1.763,1.035-2.558c0.438-0.735,1.211-1.251,1.728-1.941
			c1.27-1.697,2.339-3.557,3.765-5.094c0.638-0.675,0.712-1.214,0.579-1.904c-0.142-0.753-0.576-1.462-0.669-2.212
			c-0.204-1.626-0.957-2.445-2.568-2.563c-0.327-0.019-0.656,0-0.949-0.096c-1.281-0.433-2.524-0.936-3.803-1.324
			c-1.075-0.334-2.2-0.516-3.277-0.817c-0.558-0.159-1.125-0.375-1.589-0.69c-0.33-0.232-0.69-0.683-0.697-1.039
			c-0.071-2.673-0.093-5.348-0.026-8.022c0.033-0.906,0.527-1.648,1.638-1.66c0.355-0.003,0.73,0,1.059-0.117
			c1.184-0.403,2.327-0.945,3.53-1.279c1.303-0.36,2.669-0.539,3.998-0.843c0.676-0.162,1.333-0.431,1.989-0.709
			c0.22-0.097,0.489-0.301,0.571-0.516c0.509-1.344,1.006-2.688,1.451-4.054c0.09-0.271,0.049-0.713-0.118-0.914
			c-1.597-1.778-3.019-3.666-4.299-5.689c-0.962-1.517-2.291-2.808-3.482-4.238c2.042-2.821,4.035-5.574,6.036-8.328
			c0.464,0.358,0.709,0.679,0.995,0.737c1.455,0.247,2.739,0.848,4.072,1.438c1.56,0.679,3.263,1.054,4.9,1.57
			c0.186,0.056,0.375,0.107,0.52,0.215c0.806,0.59,1.521,0.806,2.372-0.041c0.653-0.649,1.439-1.336,2.295-1.563
			c1.232-0.325,1.173-1.104,1.173-1.992c-0.008-3.556,0.033-7.107-0.056-10.656c-0.026-1.032,0.627-1.474,1.27-1.708
			c1.802-0.635,3.664-1.077,5.505-1.592c0.115-0.034,0.294,0,0.347-0.069c0.843-0.995,1.866-0.516,2.51-0.512
			c0.481,0.631,0.786,1.019,1.08,1.416c0.271,0.379,0.53,0.757,0.778,1.151c0.646,1.014,1.26,2.055,1.928,3.059
			c0.774,1.151,1.771,2.183,2.331,3.419c0.498,1.11,1.051,1.645,2.258,1.572c1.076-0.065,2.16,0.041,3.233-0.034
			c0.375-0.024,0.813-0.25,1.076-0.529c0.383-0.419,0.598-1,0.949-1.452c0.839-1.095,1.753-2.127,2.58-3.229
			c1.218-1.643,2.454-3.286,3.546-5.023c0.468-0.739,0.933-0.371,1.393-0.286c0.57,0.119,1.105,0.397,1.663,0.566
			c1.031,0.306,2.102,0.52,3.104,0.904c1.092,0.412,2.131,0.973,3.304,1.521v12.967c1.683,1.195,3.163,2.236,4.418,3.122
			c0.665-0.26,1.052-0.432,1.448-0.551c0.338-0.096,0.72-0.065,1.039-0.193c0.998-0.386,1.968-0.832,2.955-1.227
			c1.092-0.447,2.192-0.878,3.308-1.279c0.888-0.319,1.789-0.59,2.688-0.85c0.167-0.054,0.441-0.019,0.557,0.097
			c0.505,0.498,1.024,0.991,1.439,1.563c1.178,1.611,2.299,3.259,3.465,4.885c0.312,0.445,0.386,2.276,0.073,2.65
			c-1.153,1.34-2.309,2.681-3.44,4.032c-0.95,1.132-1.887,2.261-2.795,3.417c-0.51,0.643-1.118,1.303-0.759,2.231
			c0.139,0.366,0.514,0.642,0.62,1.004c0.346,1.234,0.631,2.484,0.921,3.634c4.055,1.27,8.033,2.515,12.01,3.763v9.971
			c-1.259,0.288-2.477,0.538-3.671,0.841c-0.873,0.213-1.741,0.46-2.593,0.748c-1.218,0.412-2.391,1.032-3.642,1.273
			c-2.108,0.427-2.813,1.075-2.999,3.161c-0.041,0.395-0.379,0.763-0.416,1.158c-0.082,0.945-0.427,2.099-0.02,2.79
			c0.896,1.511,2.234,2.747,3.309,4.15c1.259,1.626,2.428,3.319,3.438,4.722c-0.546,1.04-0.888,1.912-1.422,2.656
			c-0.843,1.191-1.729,2.374-2.755,3.398c-0.779,0.765-1.28,2.165-2.799,1.711c-0.898-0.252-1.771-0.586-2.643-0.906
			c-0.592-0.204-1.171-0.442-1.75-0.67c-1.021-0.416-2.029-0.837-3.032-1.264c-0.435-0.184-0.88-0.343-1.276-0.586
			c-0.561-0.331-2.351-0.117-2.914,0.317c-0.758,0.592-1.521,1.405-2.397,1.591c-1.223,0.267-1.147,0.987-1.141,1.826
			c0.005,3.399,0.053,6.786-0.008,10.176c-0.007,0.561-0.36,1.268-0.783,1.615c-0.513,0.431-1.259,0.612-1.934,0.794
			c-1.211,0.315-2.446,0.547-3.664,0.841c-0.249,0.061-0.483,0.223-0.688,0.373c-0.954,0.709-3.134,0.215-3.66-0.754
			c-0.562-1.063-1.214-2.081-1.867-3.096c-0.835-1.299-1.728-2.58-2.562-3.879c-0.816-1.26-1.618-2.452-3.457-2.061
			c-0.689,0.152-1.454,0.134-2.146,0c-1.597-0.31-2.116,1.014-2.825,1.875c-1.006,1.208-1.801,2.591-2.685,3.901
			c-0.827,1.22-1.634,2.456-2.494,3.657c-0.2,0.275-0.605,0.639-0.847,0.605c-1.154-0.215-2.279-0.545-3.411-0.85
			c-0.729-0.2-1.455-0.399-2.153-0.687C1770.261,342.045,1769.129,341.496,1767.808,340.904 M1813.249,296.046
			c0.379-3.43-1.229-8.156-4.013-12.21c-5.139-7.504-12.262-11.701-21.702-11.701c-5.127,0-9.774,1.273-13.898,4.069
			c-7.641,5.186-11.602,12.433-11.627,21.841c-0.019,5.043,1.396,9.598,4.105,13.648c5.041,7.542,12.19,11.426,21.396,11.627
			c5.164,0.111,9.847-1.311,14.012-4.062C1809.137,314.203,1813.112,307.005,1813.249,296.046"/>
		<path fill="#1C75BC" d="M1791.934,309.611c-0.813,0.286-1.381,0.523-1.979,0.676c-0.334,0.078-0.88,0.16-1.024-0.024
			c-0.595-0.689-1.166-1.438-1.545-2.255c-0.219-0.475-0.427-0.616-0.88-0.648c-0.664-0.031-1.299,0.069-1.952-0.384
			c-0.405-0.274-1.146-0.332-1.729,0.249c-0.497,0.49-1.178,0.88-1.846,1.095c-1.185,0.386-1.682-0.778-2.428-1.335
			c-0.183-0.131-0.101-0.679-0.056-1.022c0.048-0.292,0.232-0.561,0.321-0.848c0.074-0.229,0.03-0.55,0.164-0.7
			c0.521-0.546,0.53-1.032-0.029-1.552c-0.229-0.223-0.482-0.501-0.558-0.794c-0.273-1.106-0.542-2.086-1.94-2.352
			c-0.718-0.125-1.358-0.667-2.075-1.036v-2.645c1.194-0.46,2.287-0.884,3.074-1.195c0.522-1.008,0.949-1.786,1.332-2.591
			c0.227-0.505,0.782-0.924,0.479-1.6c-0.313-0.666-0.639-1.333-0.869-2.03c-0.073-0.219,0.061-0.609,0.23-0.8
			c0.362-0.438,0.794-0.817,1.235-1.16c0.227-0.172,0.616-0.364,0.82-0.278c0.705,0.288,1.488,0.557,1.985,1.073
			c0.587,0.613,1.267,0.525,1.686,0.269c0.731-0.441,1.463-0.341,2.209-0.406c0.234-0.013,0.579-0.004,0.685-0.15
			c0.639-0.885,1.217-1.806,1.829-2.734c0.762,0.141,1.597,0.282,2.416,0.494c0.148,0.035,0.31,0.304,0.351,0.497
			c0.188,0.867,0.326,1.739,0.505,2.603c0.033,0.137,0.141,0.278,0.245,0.375c0.689,0.547,1.5,0.98,2.066,1.637
			c0.892,1.05,1.813,0.943,2.89,0.46c0.2-0.085,0.582,0,0.765,0.148c0.594,0.457,0.839,1.147,1.054,1.843
			c0.074,0.225,0.261,0.416,0.384,0.622c-0.787,0.982-1.574,1.99-2.357,2.977c0.546,0.784,0.616,1.539,0.115,2.355
			c-0.115,0.197-0.148,0.625-0.022,0.767c0.746,0.828,1.544,1.589,2.266,2.32c-0.31,0.648-0.661,1.21-0.861,1.823
			c-0.229,0.688-0.591,1.021-1.348,1.017c-1.39-0.019-2.877-0.438-3.929,0.999c-0.345,0.466-1.062,0.769-1.214,1.27
			C1792.093,307.629,1792.061,308.705,1791.934,309.611 M1793.849,297.329c0.156-3.785-3.104-6.347-6.263-6.475
			c-1.804-0.068-3.215,0.813-4.564,1.931c-1.418,1.182-1.875,2.849-1.973,4.425c-0.074,1.138,0.171,2.556,0.98,3.594
			c1.388,1.771,3.178,3.04,5.476,2.998C1790.753,303.738,1793.968,301.266,1793.849,297.329"/>
		<animateTransform attributeType="xml" attributeName="transform" type="rotate" from="0 1787.573 297.447 " to="-360 1787.573 297.447 " dur="2s" repeatCount="indefinite"/>

	</g>
</g>
</svg>
