<?xml version="1.0" encoding="utf-8"?>
<!-- Generator: Adobe Illustrator 16.0.0, SVG Export Plug-In . SVG Version: 6.00 Build 0)  -->
<!DOCTYPE svg PUBLIC "-//W3C//DTD SVG 1.1//EN" "http://www.w3.org/Graphics/SVG/1.1/DTD/svg11.dtd">
<svg version="1.1" id="Layer_1" xmlns="http://www.w3.org/2000/svg" xmlns:xlink="http://www.w3.org/1999/xlink" x="0px" y="0px"
	 width="1920px" height="1080px" viewBox="0 0 1920 1080" enable-background="new 0 0 1920 1080" xml:space="preserve">

<g>
	<path fill="#F15A22" d="M685.917,292.087c-45.167-66.067-134.63-38.512-172.508,19.18c-59.642,90.837-60.93,217.313-81.843,320.667
		c-17.996,88.942-42.224,188.483-139.715,207.636v20.388c97.491-19.155,121.719-118.693,139.715-207.636
		c20.913-103.356,22.201-229.829,81.843-320.668c37.878-57.688,127.341-85.249,172.508-19.181
		c29.555,43.229,37.863,101.567,38.665,160.713C725.413,407.249,718.863,340.278,685.917,292.087"/>
	<path fill="#F15A22" d="M718.178,734.549C711.581,758.115,720.062,982.2,846.37,982.2c47.014-2.462,69.752-26.85,91.434-57.249
		c-13.552,9.779-90.729,68.768-154.299,6.601C719.932,869.384,718.178,734.549,718.178,734.549"/>
	<path fill="#96C13C" d="M1509.746,99.917v-1.145c-0.49,0.079-0.961,0.175-1.443,0.257L1509.746,99.917z"/>
	<path fill="#96C13C" d="M1505.441,119.929c1.428-0.265,2.854-0.534,4.305-0.769v-6.233L1505.441,119.929z"/>
	<path fill="#96C13C" d="M1458.801,135.068l16.893-27.493c-49.021,17.773-83.846,54.399-117.523,98.243
		c-54.707,71.23-97.092,152.03-138.775,231.253c-77.885,148.034-144.904,315.478-256.813,442.164
		c-56.193,63.609-158.798,119.955-213.366,22.196c-48.885-87.58-40.522-208.996-44.431-305.688
		c-3.586-88.644,3.855-215.533-55.411-289.423c-55.465-69.143-147.363-28.93-181.942,37.666
		c-49.197,94.751-49.183,212.113-69.386,314.933c-14.963,76.157-36.007,157.021-106.193,186.143v20.42
		c71.153-29.284,93.715-110.933,109.865-187.608c21.706-103.045,22.765-220.07,71.054-315.583
		c30.747-60.811,115.193-106.409,161.984-34.237c51.119,78.844,45.128,200.015,51.653,289.771
		c7.074,97.301,5.813,218.518,59.275,304.316c59.126,94.89,158.486,43.604,216.897-22.52
		c111.908-126.689,178.928-294.127,256.813-442.161c41.684-79.225,84.068-160.023,138.775-231.254
		C1387.846,187.57,1418.412,154.537,1458.801,135.068"/>
	<path fill="#1C75BC" d="M1463.949,126.688l15.502-25.222c-55.906,14.6-92.434,53.071-127.352,101.139
		c-50.926,70.104-89.025,149.646-126.344,227.495c-70.752,147.585-129.533,312.7-232.779,441.744
		C939.04,939.255,841.77,999.327,778.174,907.63c-57.714-83.218-59.635-206.718-70.516-303.546
		c-10.882-96.827-12.808-220.326-70.521-303.544c-48.994-70.644-141.959-58.379-182.03,13.696
		c-52.714,94.813-48.012,221.155-60.792,325.815c-10.303,84.351-21.438,197.319-102.464,234.225v20.387
		c81.025-36.906,92.161-149.873,102.464-234.225c12.78-104.658,8.078-231.002,60.792-325.812
		c40.071-72.076,133.036-84.346,182.03-13.699c57.713,83.219,59.639,206.718,70.521,303.544
		c10.881,96.829,12.802,220.327,70.516,303.547c63.596,91.694,160.865,31.626,214.802-35.786
		c103.246-129.045,162.027-294.16,232.779-441.748c37.318-77.846,75.418-157.391,126.344-227.492
		C1383.684,179.518,1416.59,143.904,1463.949,126.688"/>
</g>
</svg>
