<?xml version="1.0" encoding="utf-8"?>
<!-- Generator: Adobe Illustrator 16.0.0, SVG Export Plug-In . SVG Version: 6.00 Build 0)  -->
<!DOCTYPE svg PUBLIC "-//W3C//DTD SVG 1.1//EN" "http://www.w3.org/Graphics/SVG/1.1/DTD/svg11.dtd">
<svg version="1.1" id="Layer_1" xmlns="http://www.w3.org/2000/svg" xmlns:xlink="http://www.w3.org/1999/xlink" x="0px" y="0px"
	 width="1920px" height="1080px" viewBox="0 0 1920 1080" enable-background="new 0 0 1920 1080" xml:space="preserve">
<g>
	<path fill="#F15A22" d="M1439.563,122.828c-133.605,58.704-197.873,224.708-260.084,348.861
		c-71.744,143.178-135.303,326.528-256.807,437.107c-13.549,12.33-27.703,25.682-41.681,32.959l0.179-0.084
		c28.164-12.59,55.273-32.848,77.155-56.461c26.847-28.973,51.019-60.582,73.339-93.866
		c57.936-96.033,101.15-206.144,147.814-299.268c44.244-88.301,89.529-197.772,160.059-274.756
		C1367.42,178.932,1399.949,145.67,1439.563,122.828"/>
	<path fill="#96C13C" d="M1509.746,101.097v-1.147c-0.43,0.115-0.852,0.244-1.277,0.363L1509.746,101.097z"/>
	<path fill="#96C13C" d="M1455.33,141.892l6.051-9.843c-102.473,46.048-160.643,159.055-209.379,263.262
		C1302.467,297.423,1361.357,192.272,1455.33,141.892"/>
	<path fill="#96C13C" d="M1505.123,121.628c1.535-0.438,3.07-0.877,4.623-1.291v-6.232L1505.123,121.628z"/>
	<path fill="#96C13C" d="M936.585,926.735c7.596-6.636,14.878-13.732,21.739-21.138c85.031-91.765,143.511-209.771,199.732-324.69
		c20.912-47.251,41.186-94.233,62.58-138.889c10.246-21.387,20.576-44.026,31.365-67.097
		c-11.984,23.247-23.494,46.085-34.887,67.679c-59.512,112.814-112.416,239.835-185.451,348.744
		c-22.316,33.284-46.492,64.894-73.339,93.866c-21.882,23.613-48.991,44.805-77.155,57.396v9.069
		C899.958,947.679,918.769,938.883,936.585,926.735"/>
	<path fill="#1C75BC" d="M1461.381,132.049l16.656-27.107c-13.529,4.891-26.342,10.89-38.475,17.887
		c-39.613,22.842-72.143,56.104-100.025,94.491c-34.85,47.983-62.443,103.954-87.535,157.603
		c-10.789,23.07-21.119,45.71-31.361,67.095c-21.398,44.657-41.672,91.638-62.584,138.894
		c-47.877,108.175-99.127,217.776-175.012,304.217c-14.055,16.012-29.824,30.267-46.459,41.608
		c-17.814,12.147-36.628,20.943-55.416,24.94v20.387c36.336-7.729,72.775-33.396,101.875-66.55
		c109.033-124.196,167.217-296.212,237.596-443.111c10.242-21.381,20.572-44.021,31.361-67.091
		C1300.738,291.104,1358.908,178.097,1461.381,132.049"/>
</g>
</svg>
