<?xml version="1.0" encoding="utf-8"?>
<!-- Generator: Adobe Illustrator 16.0.0, SVG Export Plug-In . SVG Version: 6.00 Build 0)  -->
<!DOCTYPE svg PUBLIC "-//W3C//DTD SVG 1.1//EN" "http://www.w3.org/Graphics/SVG/1.1/DTD/svg11.dtd">
<svg version="1.1" id="Layer_1" xmlns="http://www.w3.org/2000/svg" xmlns:xlink="http://www.w3.org/1999/xlink" x="0px" y="0px"
	 width="1920px" height="1080px" viewBox="0 0 1920 1080" enable-background="new 0 0 1920 1080" xml:space="preserve">
<g id="X_1_">
	<polygon fill="#1C75BC" points="1441.852,761.541 1332.725,761.541 1262.525,650.332 1233.33,696.205 1192.32,761.541 
		1083.191,761.541 1207.611,562.053 1089.449,368.824 1198.578,368.824 1262.525,473.781 1326.469,368.824 1435.594,368.824 
		1317.434,561.36 	"/>
	<polyline fill="#1C75BC" points="1369.402,476.683 1601.004,97.8 1489.357,97.8 1269.139,462.924 	"/>
	<polyline fill="#1C75BC" points="1185.068,598.486 953.465,977.365 1065.109,977.365 1285.33,612.243 	"/>
</g>
<g id="_x31_5_1_" display="none">
	<defs>
		<path id="SVGID_13_" d="M1329.293,559.351l126.33,202.19h44.146l-147.727-238.637L1329.293,559.351z M1359.627,510.746
			l70.152,112.1c0,0,76.566-74.096,135.305-7.11c58.732,66.987-53.291,146.109-53.291,146.109h48.297
			c0,0,112.813-81.143,47.951-175.233c-63.789-81.743-142.309-33.7-165.123-14.526l-35.637-57.57l62.234-100.267l-26.092-37.77
			L1359.627,510.746z"/>
	</defs>
	<clipPath id="SVGID_14_" display="inline">
		<use xlink:href="#SVGID_13_"  overflow="visible"/>
	</clipPath>
	
		<linearGradient id="SVGID_15_" gradientUnits="userSpaceOnUse" x1="461.1343" y1="1040.3037" x2="462.548" y2="1040.3037" gradientTransform="matrix(147.2044 -171.0721 -171.0721 -147.2044 111524.8047 232666.1094)">
		<stop  offset="0" style="stop-color:#1C75BC"/>
		<stop  offset="0.2674" style="stop-color:#1B73B9"/>
		<stop  offset="0.4526" style="stop-color:#1A70B3"/>
		<stop  offset="0.6128" style="stop-color:#196AAB"/>
		<stop  offset="0.7589" style="stop-color:#17639F"/>
		<stop  offset="0.8941" style="stop-color:#13588F"/>
		<stop  offset="1" style="stop-color:#0C4D7F"/>
	</linearGradient>
	<polygon display="inline" clip-path="url(#SVGID_14_)" fill="url(#SVGID_15_)" points="1138.766,597.897 1475.475,206.595 
		1863.43,540.426 1526.721,931.729 	"/>
</g>
<g display="none">
	<path display="inline" d="M1212.521,803.661v-31.119h2.234v31.119H1212.521z"/>
	<path display="inline" d="M1240.879,803.661h-2.191V790.95c0-2.951-0.416-5.099-1.248-6.443c-0.834-1.343-2.156-2.016-3.967-2.016
		c-0.965,0-1.922,0.175-2.871,0.525c-0.951,0.352-1.834,0.849-2.652,1.49c-0.818,0.644-1.533,1.396-2.148,2.258
		c-0.613,0.862-1.066,1.79-1.357,2.783v14.113h-2.191v-22.792h2.059v5.436c0.469-0.877,1.045-1.673,1.732-2.389
		c0.686-0.716,1.461-1.33,2.322-1.842c0.861-0.511,1.775-0.905,2.74-1.183c0.963-0.277,1.957-0.417,2.98-0.417
		c2.482,0,4.236,0.87,5.26,2.608c1.021,1.738,1.533,4.229,1.533,7.473V803.661z"/>
	<path display="inline" d="M1248.33,803.661v-20.995h-3.199v-1.797h3.199v-0.745c0-2.805,0.57-4.989,1.709-6.553
		c1.139-1.563,2.717-2.345,4.734-2.345c0.875,0,1.723,0.132,2.541,0.395s1.49,0.613,2.018,1.052l-0.789,1.578
		c-0.41-0.321-0.914-0.584-1.514-0.789c-0.598-0.204-1.219-0.307-1.861-0.307c-1.49,0-2.639,0.592-3.441,1.775
		c-0.805,1.183-1.205,2.9-1.205,5.149v0.789h6.486v1.797h-6.486v20.995H1248.33z"/>
	<path display="inline" d="M1269.719,804.1c-1.607,0-3.09-0.314-4.449-0.942s-2.535-1.482-3.527-2.564
		c-0.994-1.08-1.77-2.337-2.324-3.77c-0.555-1.431-0.832-2.937-0.832-4.515c0-1.606,0.285-3.126,0.854-4.558
		c0.57-1.432,1.352-2.688,2.346-3.77c0.992-1.081,2.17-1.936,3.527-2.564c1.359-0.628,2.828-0.942,4.406-0.942
		s3.039,0.314,4.383,0.942c1.344,0.629,2.52,1.483,3.527,2.564c1.01,1.081,1.799,2.338,2.367,3.77
		c0.57,1.432,0.855,2.951,0.855,4.558c0,1.578-0.285,3.084-0.855,4.515c-0.568,1.433-1.352,2.689-2.344,3.77
		c-0.994,1.082-2.17,1.937-3.529,2.564S1271.297,804.1,1269.719,804.1z M1260.777,792.396c0,1.345,0.232,2.608,0.701,3.792
		c0.467,1.183,1.102,2.213,1.906,3.09c0.803,0.876,1.746,1.571,2.828,2.082c1.08,0.512,2.234,0.767,3.461,0.767
		c1.229,0,2.383-0.255,3.463-0.767c1.082-0.511,2.031-1.22,2.85-2.126c0.818-0.905,1.461-1.95,1.928-3.134s0.701-2.462,0.701-3.835
		c0-1.344-0.234-2.608-0.701-3.792s-1.109-2.22-1.928-3.111s-1.762-1.601-2.828-2.126c-1.066-0.526-2.213-0.789-3.439-0.789
		c-1.229,0-2.383,0.263-3.463,0.789c-1.082,0.525-2.023,1.242-2.826,2.147c-0.805,0.906-1.447,1.966-1.93,3.178
		C1261.018,789.774,1260.777,791.053,1260.777,792.396z"/>
	<path display="inline" d="M1295.799,804.1c-1.607,0-3.098-0.314-4.471-0.942c-1.375-0.628-2.564-1.49-3.572-2.586
		s-1.797-2.359-2.367-3.792c-0.57-1.431-0.855-2.965-0.855-4.602c0-1.606,0.285-3.119,0.855-4.536s1.352-2.659,2.344-3.726
		c0.994-1.066,2.17-1.907,3.529-2.521c1.359-0.614,2.826-0.921,4.404-0.921c1.607,0,3.098,0.314,4.471,0.942
		c1.373,0.629,2.557,1.477,3.551,2.542c0.992,1.067,1.768,2.309,2.322,3.726c0.555,1.418,0.834,2.915,0.834,4.493
		c0,0.146,0,0.328,0,0.548c0,0.219-0.016,0.358-0.045,0.416h-19.986c0.088,1.315,0.395,2.535,0.92,3.66
		c0.527,1.125,1.191,2.097,1.996,2.915c0.803,0.818,1.73,1.461,2.783,1.928c1.051,0.468,2.176,0.702,3.375,0.702
		c0.787,0,1.563-0.11,2.322-0.329s1.469-0.519,2.125-0.898c0.658-0.38,1.242-0.84,1.754-1.381c0.512-0.54,0.912-1.132,1.205-1.775
		l1.928,0.526c-0.32,0.818-0.795,1.571-1.424,2.257c-0.629,0.688-1.359,1.279-2.191,1.775c-0.832,0.497-1.746,0.884-2.738,1.161
		C1297.873,803.96,1296.85,804.1,1295.799,804.1z M1304.74,791.389c-0.088-1.344-0.389-2.571-0.898-3.682
		c-0.512-1.11-1.17-2.067-1.973-2.871c-0.805-0.804-1.732-1.432-2.783-1.885c-1.053-0.452-2.178-0.68-3.375-0.68
		c-1.199,0-2.324,0.228-3.375,0.68c-1.053,0.453-1.98,1.081-2.783,1.885c-0.805,0.804-1.447,1.769-1.93,2.893
		c-0.48,1.126-0.766,2.345-0.854,3.66H1304.74z"/>
	<path display="inline" d="M1310.613,780.869l7.363,9.424l0.35,0.613l0.352-0.613l7.318-9.424h2.455l-8.854,11.439l8.811,11.353
		h-2.412l-7.318-9.38l-0.352-0.569l-0.35,0.569l-7.32,9.38h-2.41l8.809-11.353l-8.854-11.439H1310.613z"/>
	<path display="inline" d="M1343.748,804.1c-1.959,0-3.705-0.519-5.238-1.556s-2.77-2.302-3.703-3.792v14.245h-2.191v-32.128h2.016
		v4.559c0.936-1.461,2.17-2.651,3.703-3.572c1.535-0.92,3.178-1.381,4.932-1.381c1.578,0,3.039,0.337,4.383,1.009
		s2.498,1.556,3.463,2.651s1.717,2.36,2.258,3.791c0.539,1.433,0.811,2.893,0.811,4.383c0,1.578-0.25,3.084-0.746,4.515
		c-0.496,1.433-1.205,2.689-2.125,3.77c-0.92,1.082-2.023,1.937-3.311,2.564C1346.713,803.785,1345.297,804.1,1343.748,804.1z
		 M1343.221,802.127c1.316,0,2.514-0.277,3.596-0.833c1.08-0.555,2-1.293,2.76-2.213c0.76-0.921,1.344-1.973,1.754-3.156
		c0.408-1.184,0.613-2.389,0.613-3.616c0-1.314-0.234-2.563-0.701-3.747s-1.117-2.228-1.949-3.134
		c-0.834-0.905-1.805-1.629-2.916-2.17c-1.111-0.54-2.293-0.811-3.551-0.811c-0.787,0-1.629,0.168-2.52,0.504
		s-1.73,0.789-2.52,1.358c-0.789,0.57-1.463,1.221-2.018,1.951s-0.875,1.505-0.963,2.322v7.495c0.379,0.849,0.861,1.637,1.445,2.367
		s1.242,1.374,1.973,1.929c0.73,0.556,1.52,0.986,2.367,1.293S1342.316,802.127,1343.221,802.127z"/>
	<path display="inline" d="M1370.221,782.842c-2.045,0.059-3.834,0.665-5.369,1.819c-1.533,1.154-2.607,2.739-3.221,4.755v14.245
		h-2.191v-22.792h2.104v5.61c0.789-1.606,1.834-2.915,3.133-3.923c1.301-1.008,2.697-1.585,4.188-1.731
		c0.291-0.028,0.555-0.044,0.787-0.044c0.234,0,0.424,0,0.57,0V782.842z"/>
	<path display="inline" d="M1382.975,804.1c-1.607,0-3.098-0.314-4.471-0.942s-2.564-1.49-3.572-2.586s-1.797-2.359-2.367-3.792
		c-0.568-1.431-0.854-2.965-0.854-4.602c0-1.606,0.285-3.119,0.854-4.536c0.57-1.417,1.352-2.659,2.346-3.726
		c0.992-1.066,2.17-1.907,3.527-2.521c1.359-0.614,2.828-0.921,4.406-0.921c1.605,0,3.096,0.314,4.471,0.942
		c1.373,0.629,2.557,1.477,3.551,2.542c0.992,1.067,1.768,2.309,2.322,3.726c0.555,1.418,0.832,2.915,0.832,4.493
		c0,0.146,0,0.328,0,0.548c0,0.219-0.014,0.358-0.043,0.416h-19.986c0.088,1.315,0.395,2.535,0.92,3.66s1.189,2.097,1.994,2.915
		c0.803,0.818,1.73,1.461,2.783,1.928c1.053,0.468,2.176,0.702,3.375,0.702c0.789,0,1.563-0.11,2.322-0.329s1.469-0.519,2.127-0.898
		c0.656-0.38,1.242-0.84,1.752-1.381c0.512-0.54,0.914-1.132,1.207-1.775l1.928,0.526c-0.322,0.818-0.797,1.571-1.424,2.257
		c-0.629,0.688-1.359,1.279-2.191,1.775c-0.834,0.497-1.748,0.884-2.74,1.161C1385.049,803.96,1384.027,804.1,1382.975,804.1z
		 M1391.916,791.389c-0.088-1.344-0.387-2.571-0.898-3.682s-1.168-2.067-1.973-2.871c-0.803-0.804-1.73-1.432-2.783-1.885
		c-1.051-0.452-2.176-0.68-3.375-0.68c-1.197,0-2.322,0.228-3.375,0.68c-1.051,0.453-1.979,1.081-2.783,1.885
		c-0.803,0.804-1.445,1.769-1.928,2.893c-0.482,1.126-0.768,2.345-0.855,3.66H1391.916z"/>
	<path display="inline" d="M1406.072,804.1c-1.752,0-3.434-0.293-5.039-0.877c-1.607-0.584-3.01-1.461-4.209-2.63l1.096-1.49
		c1.229,1.111,2.5,1.929,3.814,2.455c1.314,0.525,2.762,0.789,4.338,0.789c1.988,0,3.588-0.417,4.801-1.25
		c1.211-0.832,1.818-1.994,1.818-3.484c0-0.701-0.152-1.293-0.461-1.774c-0.307-0.482-0.766-0.892-1.379-1.228
		c-0.615-0.336-1.375-0.636-2.279-0.898c-0.906-0.264-1.959-0.541-3.156-0.833c-1.287-0.292-2.404-0.584-3.354-0.877
		c-0.949-0.291-1.73-0.642-2.346-1.052c-0.613-0.409-1.072-0.905-1.379-1.49c-0.309-0.584-0.461-1.329-0.461-2.235
		c0-1.14,0.219-2.133,0.658-2.98c0.438-0.847,1.043-1.548,1.818-2.104c0.773-0.555,1.666-0.972,2.674-1.249s2.082-0.417,3.221-0.417
		c1.783,0,3.359,0.3,4.734,0.898c1.373,0.6,2.439,1.366,3.199,2.302l-1.227,1.183c-0.762-0.876-1.746-1.533-2.959-1.972
		s-2.506-0.657-3.879-0.657c-0.848,0-1.645,0.087-2.389,0.263c-0.746,0.175-1.396,0.453-1.951,0.833s-0.994,0.869-1.314,1.468
		c-0.322,0.6-0.482,1.309-0.482,2.126c0,0.673,0.109,1.213,0.328,1.622c0.221,0.409,0.57,0.76,1.053,1.052s1.104,0.548,1.863,0.767
		c0.76,0.22,1.666,0.46,2.717,0.724c1.432,0.351,2.703,0.687,3.814,1.008c1.109,0.322,2.037,0.717,2.783,1.184
		c0.744,0.468,1.314,1.023,1.709,1.665c0.395,0.644,0.592,1.462,0.592,2.455c0,2.046-0.797,3.675-2.389,4.887
		C1410.857,803.493,1408.732,804.1,1406.072,804.1z"/>
	<path display="inline" d="M1427.154,804.1c-1.752,0-3.434-0.293-5.039-0.877c-1.607-0.584-3.01-1.461-4.209-2.63l1.096-1.49
		c1.229,1.111,2.5,1.929,3.814,2.455c1.314,0.525,2.762,0.789,4.338,0.789c1.988,0,3.588-0.417,4.801-1.25
		c1.211-0.832,1.818-1.994,1.818-3.484c0-0.701-0.152-1.293-0.461-1.774c-0.307-0.482-0.766-0.892-1.379-1.228
		c-0.615-0.336-1.375-0.636-2.279-0.898c-0.906-0.264-1.959-0.541-3.156-0.833c-1.287-0.292-2.404-0.584-3.354-0.877
		c-0.949-0.291-1.73-0.642-2.346-1.052c-0.613-0.409-1.072-0.905-1.379-1.49c-0.309-0.584-0.461-1.329-0.461-2.235
		c0-1.14,0.219-2.133,0.658-2.98c0.438-0.847,1.043-1.548,1.818-2.104c0.773-0.555,1.666-0.972,2.674-1.249s2.082-0.417,3.221-0.417
		c1.783,0,3.359,0.3,4.734,0.898c1.373,0.6,2.439,1.366,3.199,2.302l-1.227,1.183c-0.762-0.876-1.746-1.533-2.959-1.972
		s-2.506-0.657-3.879-0.657c-0.848,0-1.645,0.087-2.389,0.263c-0.746,0.175-1.396,0.453-1.951,0.833s-0.994,0.869-1.314,1.468
		c-0.322,0.6-0.482,1.309-0.482,2.126c0,0.673,0.109,1.213,0.328,1.622c0.221,0.409,0.57,0.76,1.053,1.052s1.104,0.548,1.863,0.767
		c0.76,0.22,1.666,0.46,2.717,0.724c1.432,0.351,2.703,0.687,3.814,1.008c1.109,0.322,2.037,0.717,2.783,1.184
		c0.744,0.468,1.314,1.023,1.709,1.665c0.395,0.644,0.592,1.462,0.592,2.455c0,2.046-0.797,3.675-2.389,4.887
		C1431.939,803.493,1429.814,804.1,1427.154,804.1z"/>
	<path display="inline" d="M1441.006,775.697v-4.032h2.191v4.032H1441.006z M1441.006,803.661v-22.792h2.191v22.792H1441.006z"/>
	<path display="inline" d="M1459.633,804.1c-1.607,0-3.09-0.314-4.449-0.942s-2.535-1.482-3.527-2.564
		c-0.994-1.08-1.77-2.337-2.324-3.77c-0.555-1.431-0.832-2.937-0.832-4.515c0-1.606,0.285-3.126,0.854-4.558
		c0.57-1.432,1.352-2.688,2.346-3.77c0.992-1.081,2.17-1.936,3.527-2.564c1.359-0.628,2.828-0.942,4.406-0.942
		s3.039,0.314,4.383,0.942c1.344,0.629,2.52,1.483,3.527,2.564c1.01,1.081,1.799,2.338,2.367,3.77
		c0.57,1.432,0.855,2.951,0.855,4.558c0,1.578-0.285,3.084-0.855,4.515c-0.568,1.433-1.352,2.689-2.344,3.77
		c-0.994,1.082-2.17,1.937-3.529,2.564S1461.211,804.1,1459.633,804.1z M1450.691,792.396c0,1.345,0.232,2.608,0.701,3.792
		c0.467,1.183,1.102,2.213,1.906,3.09c0.803,0.876,1.746,1.571,2.828,2.082c1.08,0.512,2.234,0.767,3.461,0.767
		c1.229,0,2.383-0.255,3.463-0.767c1.082-0.511,2.031-1.22,2.85-2.126c0.818-0.905,1.461-1.95,1.928-3.134s0.701-2.462,0.701-3.835
		c0-1.344-0.234-2.608-0.701-3.792s-1.109-2.22-1.928-3.111s-1.762-1.601-2.828-2.126c-1.066-0.526-2.213-0.789-3.439-0.789
		c-1.229,0-2.383,0.263-3.463,0.789c-1.082,0.525-2.023,1.242-2.826,2.147c-0.805,0.906-1.447,1.966-1.93,3.178
		C1450.932,789.774,1450.691,791.053,1450.691,792.396z"/>
	<path display="inline" d="M1494.652,803.661h-2.191V790.95c0-2.951-0.416-5.099-1.248-6.443c-0.834-1.343-2.156-2.016-3.967-2.016
		c-0.965,0-1.922,0.175-2.871,0.525c-0.951,0.352-1.834,0.849-2.652,1.49c-0.818,0.644-1.533,1.396-2.148,2.258
		c-0.613,0.862-1.066,1.79-1.357,2.783v14.113h-2.191v-22.792h2.059v5.436c0.469-0.877,1.045-1.673,1.732-2.389
		c0.686-0.716,1.461-1.33,2.322-1.842c0.861-0.511,1.775-0.905,2.74-1.183c0.963-0.277,1.957-0.417,2.98-0.417
		c2.482,0,4.236,0.87,5.26,2.608c1.021,1.738,1.533,4.229,1.533,7.473V803.661z"/>
	<path display="inline" d="M1511.088,803.661c0-0.817,0.072-1.731,0.219-2.739s0.475-2.03,0.986-3.068
		c0.512-1.037,1.256-2.045,2.236-3.024c0.979-0.979,2.285-1.862,3.922-2.651c0.818-0.409,1.695-0.817,2.631-1.228
		c0.934-0.409,1.797-0.884,2.586-1.425c0.789-0.54,1.445-1.161,1.973-1.862c0.525-0.701,0.789-1.549,0.789-2.542
		c0-0.584-0.133-1.169-0.395-1.753c-0.264-0.585-0.652-1.11-1.162-1.578c-0.512-0.468-1.162-0.848-1.951-1.14
		s-1.709-0.438-2.762-0.438c-1.021,0-1.936,0.146-2.738,0.438c-0.805,0.292-1.506,0.643-2.104,1.052
		c-0.6,0.409-1.096,0.818-1.49,1.228s-0.68,0.73-0.855,0.964l-1.49-1.534c0.117-0.116,0.402-0.401,0.855-0.854
		c0.451-0.453,1.059-0.921,1.818-1.402c0.76-0.482,1.672-0.921,2.74-1.315c1.066-0.395,2.256-0.592,3.572-0.592
		c1.314,0,2.49,0.184,3.527,0.548c1.037,0.366,1.914,0.862,2.629,1.49c0.717,0.629,1.258,1.359,1.623,2.192
		c0.365,0.832,0.547,1.702,0.547,2.607c0,1.198-0.291,2.235-0.877,3.112c-0.584,0.876-1.299,1.644-2.146,2.301
		s-1.732,1.205-2.652,1.644s-1.717,0.804-2.389,1.096c-2.279,0.965-4.025,2.111-5.238,3.44c-1.213,1.33-1.848,3.003-1.906,5.019
		h15.691v2.017H1511.088z"/>
	<path display="inline" d="M1555.664,790.818c0,1.929-0.271,3.704-0.813,5.326c-0.541,1.621-1.299,3.024-2.277,4.207
		c-0.98,1.184-2.135,2.104-3.463,2.762c-1.33,0.657-2.783,0.986-4.361,0.986s-3.031-0.329-4.361-0.986s-2.477-1.578-3.441-2.762
		c-0.963-1.183-1.717-2.586-2.256-4.207c-0.541-1.622-0.813-3.397-0.813-5.326c0-1.928,0.271-3.703,0.813-5.325
		c0.539-1.621,1.293-3.024,2.256-4.207c0.965-1.184,2.111-2.111,3.441-2.783s2.783-1.009,4.361-1.009s3.031,0.337,4.361,1.009
		c1.328,0.672,2.482,1.6,3.463,2.783c0.979,1.183,1.736,2.586,2.277,4.207C1555.393,787.115,1555.664,788.891,1555.664,790.818z
		 M1553.428,790.818c0-1.665-0.213-3.191-0.635-4.58c-0.424-1.388-1.016-2.57-1.775-3.55c-0.76-0.979-1.674-1.746-2.74-2.301
		c-1.066-0.556-2.242-0.833-3.527-0.833c-1.287,0-2.463,0.277-3.529,0.833c-1.066,0.555-1.979,1.322-2.738,2.301
		c-0.76,0.979-1.352,2.162-1.775,3.55c-0.424,1.389-0.637,2.915-0.637,4.58c0,1.666,0.213,3.186,0.637,4.559
		c0.424,1.374,1.016,2.558,1.775,3.551s1.672,1.761,2.738,2.301c1.066,0.541,2.242,0.811,3.529,0.811
		c1.285,0,2.461-0.27,3.527-0.811c1.066-0.54,1.98-1.308,2.74-2.301s1.352-2.177,1.775-3.551
		C1553.215,794.004,1553.428,792.484,1553.428,790.818z"/>
	<path display="inline" d="M1575.123,801.645v2.017h-13.982v-2.017h6.225v-20.249c-0.264,0.351-0.672,0.73-1.227,1.14
		c-0.557,0.409-1.184,0.796-1.885,1.161c-0.701,0.366-1.418,0.673-2.148,0.921s-1.389,0.372-1.973,0.372v-2.191
		c0.73,0,1.504-0.197,2.322-0.592s1.586-0.84,2.303-1.337c0.715-0.496,1.314-0.971,1.797-1.424s0.752-0.724,0.811-0.812h2.191
		v23.011H1575.123z"/>
	<path display="inline" d="M1588.053,790.073c1.402,0,2.717,0.241,3.945,0.724c1.227,0.482,2.301,1.161,3.221,2.038
		c0.922,0.877,1.645,1.922,2.17,3.134c0.525,1.213,0.789,2.55,0.789,4.011c0,1.549-0.285,2.944-0.855,4.186
		c-0.568,1.242-1.336,2.315-2.301,3.222c-0.963,0.905-2.09,1.6-3.375,2.082s-2.645,0.723-4.076,0.723
		c-2.221,0-4.215-0.563-5.982-1.688s-3.09-2.607-3.967-4.448l1.621-0.921c0.789,1.52,1.93,2.74,3.42,3.66
		c1.49,0.921,3.127,1.381,4.908,1.381c1.168,0,2.264-0.197,3.287-0.592s1.908-0.957,2.652-1.688c0.746-0.73,1.336-1.593,1.775-2.586
		c0.438-0.993,0.658-2.104,0.658-3.331c0-1.169-0.213-2.235-0.637-3.2c-0.424-0.964-1.002-1.797-1.73-2.498
		c-0.73-0.701-1.586-1.241-2.564-1.621c-0.98-0.38-2.039-0.57-3.178-0.57c-1.49,0-2.893,0.329-4.207,0.986
		c-1.316,0.657-2.396,1.6-3.244,2.827h-2.104c0.027-0.204,0.109-0.614,0.24-1.228s0.277-1.344,0.439-2.191
		c0.16-0.847,0.342-1.782,0.547-2.805s0.408-2.045,0.613-3.068c0.496-2.396,1.037-5.055,1.623-7.978h14.902v2.061h-13.238
		l-2.453,12.316c0.875-0.936,1.928-1.658,3.154-2.17C1585.336,790.33,1586.65,790.073,1588.053,790.073z"/>
</g>
</svg>
