<?xml version="1.0" encoding="utf-8"?>
<!-- Generator: Adobe Illustrator 16.0.0, SVG Export Plug-In . SVG Version: 6.00 Build 0)  -->
<!DOCTYPE svg PUBLIC "-//W3C//DTD SVG 1.1//EN" "http://www.w3.org/Graphics/SVG/1.1/DTD/svg11.dtd">
<svg version="1.1" id="Layer_1" xmlns="http://www.w3.org/2000/svg" xmlns:xlink="http://www.w3.org/1999/xlink" x="0px" y="0px"
	 width="1920px" height="1080px" viewBox="0 0 1920 1080" enable-background="new 0 0 1920 1080" xml:space="preserve">

<g id="_x31_5_1_">
	<defs>
		<path id="SVGID_13_" d="M1329.293,559.351l126.33,202.19h44.146l-147.727-238.637L1329.293,559.351z M1359.627,510.746
			l70.152,112.1c0,0,76.566-74.096,135.305-7.11c58.732,66.987-53.291,146.109-53.291,146.109h48.297
			c0,0,112.813-81.143,47.951-175.233c-63.789-81.743-142.309-33.7-165.123-14.526l-35.637-57.57l62.234-100.267l-26.092-37.77
			L1359.627,510.746z"/>
	</defs>
	<clipPath id="SVGID_14_">
		<use xlink:href="#SVGID_13_"  overflow="visible"/>
	</clipPath>
	
		<linearGradient id="SVGID_15_" gradientUnits="userSpaceOnUse" x1="461.1343" y1="1040.3037" x2="462.548" y2="1040.3037" gradientTransform="matrix(147.2044 -171.0721 -171.0721 -147.2044 111524.8047 232666.1094)">
		<stop  offset="0" style="stop-color:#1C75BC"/>
		<stop  offset="0.2674" style="stop-color:#1B73B9"/>
		<stop  offset="0.4526" style="stop-color:#1A70B3"/>
		<stop  offset="0.6128" style="stop-color:#196AAB"/>
		<stop  offset="0.7589" style="stop-color:#17639F"/>
		<stop  offset="0.8941" style="stop-color:#13588F"/>
		<stop  offset="1" style="stop-color:#0C4D7F"/>
	</linearGradient>
	<polygon clip-path="url(#SVGID_14_)" fill="url(#SVGID_15_)" points="1138.766,597.897 1475.475,206.595 1863.43,540.426 
		1526.721,931.729 	"/>
</g>

</svg>
