<?xml version="1.0" encoding="utf-8"?>
<!-- Generator: Adobe Illustrator 16.0.0, SVG Export Plug-In . SVG Version: 6.00 Build 0)  -->
<!DOCTYPE svg PUBLIC "-//W3C//DTD SVG 1.1//EN" "http://www.w3.org/Graphics/SVG/1.1/DTD/svg11.dtd">
<svg version="1.1" id="Layer_1" xmlns="http://www.w3.org/2000/svg" xmlns:xlink="http://www.w3.org/1999/xlink" x="0px" y="0px"
	 width="1920px" height="1080px" viewBox="0 0 1920 1080" enable-background="new 0 0 1920 1080" xml:space="preserve">
<g>
	<path fill="#231F20" d="M1211.319,806.983v-33.771h2.426v33.771H1211.319z"/>
	<path fill="#231F20" d="M1242.095,806.983h-2.379v-13.794c0-3.203-0.451-5.533-1.355-6.992c-0.903-1.458-2.339-2.188-4.305-2.188
		c-1.046,0-2.085,0.19-3.115,0.571c-1.031,0.38-1.99,0.92-2.878,1.617s-1.665,1.515-2.331,2.449
		c-0.665,0.936-1.157,1.943-1.474,3.021v15.316h-2.379v-24.734h2.235v5.898c0.507-0.951,1.134-1.815,1.879-2.593
		c0.745-0.776,1.586-1.442,2.521-1.997c0.935-0.555,1.927-0.983,2.973-1.285c1.047-0.301,2.124-0.451,3.234-0.451
		c2.695,0,4.598,0.943,5.708,2.83c1.109,1.887,1.665,4.59,1.665,8.109V806.983z"/>
	<path fill="#231F20" d="M1250.18,806.983v-22.784h-3.472v-1.95h3.472v-0.809c0-3.044,0.619-5.414,1.855-7.111
		c1.236-1.695,2.949-2.545,5.137-2.545c0.952,0,1.871,0.144,2.759,0.429s1.618,0.666,2.188,1.142l-0.856,1.712
		c-0.444-0.349-0.991-0.634-1.641-0.855c-0.65-0.222-1.324-0.333-2.021-0.333c-1.617,0-2.862,0.642-3.734,1.926
		s-1.308,3.147-1.308,5.589v0.856h7.04v1.95h-7.04v22.784H1250.18z"/>
	<path fill="#231F20" d="M1273.392,807.459c-1.744,0-3.353-0.341-4.827-1.022s-2.752-1.609-3.829-2.783
		c-1.079-1.172-1.919-2.536-2.521-4.09s-0.903-3.188-0.903-4.899c0-1.744,0.309-3.393,0.928-4.947
		c0.618-1.553,1.466-2.917,2.544-4.091c1.078-1.173,2.354-2.1,3.829-2.782c1.475-0.682,3.068-1.022,4.78-1.022
		c1.713,0,3.298,0.341,4.757,1.022c1.458,0.683,2.735,1.609,3.829,2.782c1.094,1.174,1.95,2.538,2.568,4.091
		c0.619,1.555,0.928,3.203,0.928,4.947c0,1.712-0.309,3.346-0.928,4.899c-0.618,1.554-1.467,2.918-2.545,4.09
		c-1.078,1.174-2.354,2.102-3.828,2.783C1276.698,807.118,1275.104,807.459,1273.392,807.459z M1263.688,794.759
		c0,1.459,0.254,2.83,0.761,4.114s1.197,2.402,2.069,3.354s1.895,1.705,3.068,2.26c1.173,0.555,2.426,0.832,3.758,0.832
		s2.584-0.277,3.758-0.832c1.173-0.555,2.203-1.324,3.092-2.307c0.887-0.983,1.585-2.117,2.093-3.401
		c0.507-1.284,0.761-2.671,0.761-4.162c0-1.458-0.254-2.83-0.761-4.114c-0.508-1.284-1.206-2.409-2.093-3.377
		c-0.889-0.968-1.911-1.736-3.068-2.308c-1.158-0.57-2.402-0.855-3.734-0.855c-1.331,0-2.585,0.285-3.757,0.855
		c-1.174,0.571-2.196,1.349-3.068,2.331c-0.873,0.983-1.569,2.133-2.093,3.448C1263.95,791.913,1263.688,793.301,1263.688,794.759z"
		/>
	<path fill="#231F20" d="M1290.896,782.249l7.991,10.227l0.38,0.666l0.381-0.666l7.943-10.227h2.664l-9.608,12.415l9.561,12.319
		h-2.616l-7.943-10.179l-0.381-0.619l-0.38,0.619l-7.943,10.179h-2.616l9.561-12.319l-9.608-12.415H1290.896z"/>
	<path fill="#231F20" d="M1326.855,807.459c-2.125,0-4.02-0.563-5.685-1.688c-1.664-1.125-3.005-2.497-4.019-4.114v15.459h-2.379
		v-34.866h2.188v4.947c1.015-1.586,2.354-2.878,4.02-3.877c1.664-0.999,3.448-1.498,5.351-1.498c1.713,0,3.298,0.364,4.757,1.094
		c1.458,0.729,2.711,1.688,3.758,2.878c1.046,1.188,1.862,2.561,2.449,4.114s0.88,3.14,0.88,4.757c0,1.712-0.27,3.346-0.809,4.899
		s-1.308,2.918-2.307,4.09c-0.999,1.174-2.196,2.102-3.591,2.783C1330.073,807.118,1328.536,807.459,1326.855,807.459z
		 M1326.284,805.318c1.428,0,2.728-0.301,3.9-0.903s2.172-1.403,2.997-2.402c0.824-0.999,1.458-2.141,1.902-3.425
		s0.666-2.592,0.666-3.924c0-1.427-0.254-2.783-0.761-4.067c-0.508-1.284-1.213-2.417-2.117-3.4
		c-0.903-0.982-1.958-1.768-3.163-2.354s-2.489-0.88-3.853-0.88c-0.856,0-1.769,0.183-2.735,0.547
		c-0.968,0.364-1.879,0.855-2.734,1.475c-0.856,0.618-1.586,1.324-2.188,2.116c-0.603,0.793-0.951,1.634-1.046,2.521v8.134
		c0.411,0.92,0.935,1.776,1.569,2.568c0.634,0.793,1.348,1.49,2.141,2.093c0.792,0.603,1.648,1.07,2.568,1.403
		C1324.35,805.152,1325.302,805.318,1326.284,805.318z"/>
	<path fill="#231F20" d="M1355.585,784.39c-2.22,0.063-4.162,0.722-5.826,1.974c-1.665,1.253-2.831,2.974-3.496,5.161v15.459h-2.379
		v-24.734h2.283v6.089c0.856-1.744,1.989-3.163,3.401-4.258c1.41-1.094,2.925-1.72,4.542-1.879c0.317-0.031,0.603-0.047,0.856-0.047
		s0.459,0,0.618,0V784.39z"/>
	<path fill="#231F20" d="M1369.427,807.459c-1.745,0-3.362-0.341-4.853-1.022s-2.782-1.617-3.876-2.807
		c-1.095-1.189-1.95-2.561-2.568-4.114c-0.619-1.554-0.928-3.218-0.928-4.994c0-1.744,0.309-3.385,0.928-4.924
		c0.618-1.537,1.466-2.885,2.544-4.043c1.078-1.157,2.354-2.069,3.829-2.734c1.475-0.666,3.068-0.999,4.78-0.999
		c1.744,0,3.361,0.341,4.853,1.022c1.489,0.683,2.774,1.602,3.853,2.759c1.077,1.158,1.918,2.505,2.521,4.043
		c0.603,1.539,0.904,3.163,0.904,4.876c0,0.159,0,0.356,0,0.594c0,0.238-0.017,0.39-0.048,0.452h-21.689
		c0.095,1.427,0.428,2.752,0.998,3.972c0.571,1.222,1.292,2.276,2.165,3.163c0.871,0.889,1.878,1.586,3.02,2.093
		c1.142,0.508,2.362,0.762,3.663,0.762c0.856,0,1.696-0.119,2.521-0.357c0.824-0.237,1.594-0.563,2.308-0.975
		c0.713-0.412,1.348-0.911,1.902-1.498s0.991-1.229,1.309-1.927l2.093,0.571c-0.35,0.888-0.864,1.704-1.546,2.449
		c-0.683,0.745-1.475,1.388-2.379,1.927c-0.903,0.539-1.895,0.959-2.973,1.26C1371.678,807.309,1370.568,807.459,1369.427,807.459z
		 M1379.13,793.665c-0.096-1.458-0.421-2.79-0.976-3.996c-0.555-1.204-1.269-2.242-2.14-3.115c-0.873-0.872-1.879-1.553-3.021-2.045
		c-1.142-0.491-2.363-0.737-3.663-0.737c-1.301,0-2.521,0.246-3.662,0.737c-1.142,0.492-2.149,1.173-3.021,2.045
		c-0.873,0.873-1.57,1.919-2.093,3.14c-0.523,1.221-0.833,2.545-0.928,3.972H1379.13z"/>
	<path fill="#231F20" d="M1394.493,807.459c-1.902,0-3.727-0.317-5.47-0.951c-1.745-0.634-3.267-1.585-4.566-2.854l1.188-1.617
		c1.332,1.206,2.712,2.094,4.139,2.664c1.427,0.571,2.996,0.856,4.709,0.856c2.156,0,3.893-0.452,5.208-1.355
		c1.315-0.904,1.975-2.165,1.975-3.782c0-0.761-0.167-1.403-0.5-1.926c-0.333-0.523-0.832-0.967-1.498-1.332
		c-0.666-0.364-1.491-0.689-2.474-0.976c-0.983-0.285-2.125-0.586-3.425-0.903c-1.396-0.316-2.608-0.634-3.639-0.951
		c-1.03-0.316-1.879-0.697-2.545-1.142s-1.165-0.982-1.498-1.617c-0.333-0.634-0.499-1.442-0.499-2.426
		c0-1.237,0.237-2.314,0.713-3.234s1.134-1.681,1.975-2.283c0.84-0.603,1.807-1.055,2.901-1.356
		c1.094-0.301,2.259-0.451,3.496-0.451c1.934,0,3.646,0.325,5.137,0.975c1.49,0.65,2.647,1.483,3.473,2.497l-1.332,1.284
		c-0.825-0.951-1.896-1.664-3.211-2.14c-1.316-0.476-2.719-0.714-4.209-0.714c-0.921,0-1.784,0.095-2.593,0.285
		s-1.515,0.492-2.116,0.904c-0.604,0.412-1.079,0.943-1.428,1.593c-0.349,0.65-0.522,1.42-0.522,2.308
		c0,0.729,0.118,1.316,0.356,1.76c0.237,0.444,0.618,0.825,1.142,1.142c0.523,0.317,1.196,0.595,2.021,0.832
		c0.824,0.238,1.808,0.5,2.949,0.785c1.553,0.381,2.933,0.745,4.138,1.094c1.205,0.35,2.212,0.777,3.021,1.284
		c0.809,0.508,1.428,1.11,1.855,1.808c0.428,0.698,0.642,1.586,0.642,2.664c0,2.22-0.864,3.988-2.592,5.304
		C1399.686,806.802,1397.378,807.459,1394.493,807.459z"/>
	<path fill="#231F20" d="M1417.371,807.459c-1.902,0-3.727-0.317-5.47-0.951c-1.745-0.634-3.267-1.585-4.566-2.854l1.188-1.617
		c1.332,1.206,2.712,2.094,4.139,2.664c1.427,0.571,2.996,0.856,4.709,0.856c2.156,0,3.893-0.452,5.208-1.355
		c1.315-0.904,1.975-2.165,1.975-3.782c0-0.761-0.167-1.403-0.5-1.926c-0.333-0.523-0.832-0.967-1.498-1.332
		c-0.666-0.364-1.491-0.689-2.474-0.976c-0.983-0.285-2.125-0.586-3.425-0.903c-1.396-0.316-2.608-0.634-3.639-0.951
		c-1.03-0.316-1.879-0.697-2.545-1.142s-1.165-0.982-1.498-1.617c-0.333-0.634-0.499-1.442-0.499-2.426
		c0-1.237,0.237-2.314,0.713-3.234s1.134-1.681,1.975-2.283c0.84-0.603,1.807-1.055,2.901-1.356
		c1.094-0.301,2.259-0.451,3.496-0.451c1.934,0,3.646,0.325,5.137,0.975c1.49,0.65,2.647,1.483,3.473,2.497l-1.332,1.284
		c-0.825-0.951-1.896-1.664-3.211-2.14c-1.316-0.476-2.719-0.714-4.209-0.714c-0.921,0-1.784,0.095-2.593,0.285
		s-1.515,0.492-2.116,0.904c-0.604,0.412-1.079,0.943-1.428,1.593c-0.349,0.65-0.522,1.42-0.522,2.308
		c0,0.729,0.118,1.316,0.356,1.76c0.237,0.444,0.618,0.825,1.142,1.142c0.523,0.317,1.196,0.595,2.021,0.832
		c0.824,0.238,1.808,0.5,2.949,0.785c1.553,0.381,2.933,0.745,4.138,1.094c1.205,0.35,2.212,0.777,3.021,1.284
		c0.809,0.508,1.428,1.11,1.855,1.808c0.428,0.698,0.642,1.586,0.642,2.664c0,2.22-0.864,3.988-2.592,5.304
		C1422.563,806.802,1420.256,807.459,1417.371,807.459z"/>
	<path fill="#231F20" d="M1432.401,776.637v-4.376h2.379v4.376H1432.401z M1432.401,806.983v-24.734h2.379v24.734H1432.401z"/>
	<path fill="#231F20" d="M1452.616,807.459c-1.744,0-3.353-0.341-4.827-1.022s-2.752-1.609-3.829-2.783
		c-1.079-1.172-1.919-2.536-2.521-4.09s-0.903-3.188-0.903-4.899c0-1.744,0.309-3.393,0.928-4.947
		c0.618-1.553,1.466-2.917,2.544-4.091c1.078-1.173,2.354-2.1,3.829-2.782c1.475-0.682,3.068-1.022,4.78-1.022
		c1.713,0,3.298,0.341,4.757,1.022c1.458,0.683,2.735,1.609,3.829,2.782c1.094,1.174,1.95,2.538,2.568,4.091
		c0.619,1.555,0.928,3.203,0.928,4.947c0,1.712-0.309,3.346-0.928,4.899c-0.618,1.554-1.467,2.918-2.545,4.09
		c-1.078,1.174-2.354,2.102-3.828,2.783C1455.923,807.118,1454.329,807.459,1452.616,807.459z M1442.913,794.759
		c0,1.459,0.254,2.83,0.761,4.114s1.197,2.402,2.069,3.354s1.895,1.705,3.068,2.26c1.173,0.555,2.426,0.832,3.758,0.832
		s2.584-0.277,3.758-0.832c1.173-0.555,2.203-1.324,3.092-2.307c0.887-0.983,1.585-2.117,2.093-3.401
		c0.507-1.284,0.761-2.671,0.761-4.162c0-1.458-0.254-2.83-0.761-4.114c-0.508-1.284-1.206-2.409-2.093-3.377
		c-0.889-0.968-1.911-1.736-3.068-2.308c-1.158-0.57-2.402-0.855-3.734-0.855c-1.331,0-2.585,0.285-3.757,0.855
		c-1.174,0.571-2.196,1.349-3.068,2.331c-0.873,0.983-1.569,2.133-2.093,3.448C1443.175,791.913,1442.913,793.301,1442.913,794.759z
		"/>
	<path fill="#231F20" d="M1490.621,806.983h-2.379v-13.794c0-3.203-0.451-5.533-1.355-6.992c-0.903-1.458-2.339-2.188-4.305-2.188
		c-1.046,0-2.085,0.19-3.115,0.571c-1.031,0.38-1.99,0.92-2.878,1.617s-1.665,1.515-2.331,2.449
		c-0.665,0.936-1.157,1.943-1.474,3.021v15.316h-2.379v-24.734h2.235v5.898c0.507-0.951,1.134-1.815,1.879-2.593
		c0.745-0.776,1.586-1.442,2.521-1.997c0.935-0.555,1.927-0.983,2.973-1.285c1.047-0.301,2.124-0.451,3.234-0.451
		c2.695,0,4.598,0.943,5.708,2.83c1.109,1.887,1.665,4.59,1.665,8.109V806.983z"/>
	<path fill="#231F20" d="M1508.458,806.983c0-0.888,0.079-1.879,0.237-2.973s0.516-2.204,1.07-3.33
		c0.555-1.125,1.363-2.219,2.426-3.282c1.063-1.062,2.481-2.021,4.258-2.877c0.887-0.444,1.839-0.888,2.854-1.332
		s1.95-0.959,2.807-1.546s1.569-1.261,2.141-2.021c0.57-0.762,0.855-1.681,0.855-2.759c0-0.634-0.143-1.269-0.428-1.903
		c-0.285-0.634-0.706-1.204-1.261-1.712c-0.555-0.507-1.26-0.919-2.116-1.236s-1.855-0.477-2.997-0.477
		c-1.11,0-2.101,0.159-2.973,0.477s-1.634,0.697-2.283,1.142c-0.65,0.444-1.189,0.888-1.617,1.331
		c-0.428,0.444-0.737,0.793-0.928,1.047l-1.617-1.665c0.127-0.126,0.436-0.436,0.928-0.928c0.491-0.491,1.149-0.998,1.974-1.521
		s1.815-0.999,2.974-1.428c1.157-0.428,2.449-0.642,3.876-0.642s2.703,0.198,3.829,0.595c1.125,0.396,2.077,0.936,2.854,1.617
		c0.776,0.682,1.362,1.475,1.76,2.378c0.396,0.904,0.595,1.848,0.595,2.83c0,1.301-0.317,2.426-0.951,3.378
		c-0.635,0.951-1.412,1.783-2.331,2.497c-0.92,0.713-1.879,1.308-2.878,1.783s-1.863,0.873-2.593,1.189
		c-2.473,1.046-4.368,2.291-5.684,3.733c-1.316,1.443-2.006,3.259-2.069,5.446h17.028v2.188H1508.458z"/>
	<path fill="#231F20" d="M1556.832,793.047c0,2.093-0.294,4.019-0.88,5.779c-0.587,1.76-1.411,3.281-2.474,4.566
		c-1.063,1.284-2.315,2.283-3.758,2.996c-1.443,0.714-3.021,1.07-4.732,1.07c-1.713,0-3.29-0.356-4.733-1.07
		c-1.443-0.713-2.688-1.712-3.733-2.996c-1.047-1.285-1.863-2.807-2.45-4.566c-0.587-1.761-0.88-3.687-0.88-5.779
		s0.293-4.02,0.88-5.779s1.403-3.282,2.45-4.566c1.046-1.284,2.29-2.291,3.733-3.021s3.021-1.094,4.733-1.094
		c1.712,0,3.289,0.364,4.732,1.094c1.442,0.729,2.695,1.736,3.758,3.021s1.887,2.807,2.474,4.566
		C1556.538,789.027,1556.832,790.954,1556.832,793.047z M1554.406,793.047c0-1.808-0.23-3.465-0.689-4.971
		c-0.46-1.506-1.103-2.79-1.927-3.854c-0.825-1.062-1.815-1.894-2.973-2.497c-1.158-0.602-2.435-0.903-3.829-0.903
		c-1.396,0-2.672,0.302-3.829,0.903c-1.158,0.604-2.148,1.436-2.973,2.497c-0.825,1.063-1.468,2.348-1.927,3.854
		c-0.46,1.506-0.689,3.163-0.689,4.971s0.229,3.456,0.689,4.946c0.459,1.491,1.102,2.775,1.927,3.854
		c0.824,1.078,1.814,1.91,2.973,2.497c1.157,0.587,2.434,0.88,3.829,0.88c1.395,0,2.671-0.293,3.829-0.88
		c1.157-0.587,2.147-1.419,2.973-2.497c0.824-1.078,1.467-2.362,1.927-3.854C1554.176,796.503,1554.406,794.854,1554.406,793.047z"
		/>
	<path fill="#231F20" d="M1577.951,804.795v2.188h-15.174v-2.188h6.755V782.82c-0.286,0.38-0.73,0.793-1.332,1.236
		c-0.603,0.444-1.284,0.864-2.046,1.261c-0.761,0.396-1.538,0.729-2.33,0.999c-0.793,0.27-1.507,0.404-2.141,0.404v-2.379
		c0.792,0,1.633-0.214,2.521-0.642c0.888-0.429,1.72-0.911,2.497-1.451c0.777-0.539,1.428-1.054,1.95-1.546
		c0.523-0.491,0.816-0.785,0.881-0.88h2.378v24.972H1577.951z"/>
	<path fill="#231F20" d="M1591.982,792.238c1.521,0,2.949,0.262,4.281,0.784c1.331,0.523,2.497,1.261,3.496,2.212
		c0.998,0.951,1.783,2.086,2.354,3.401c0.57,1.316,0.855,2.767,0.855,4.353c0,1.681-0.309,3.194-0.928,4.542
		c-0.618,1.348-1.45,2.513-2.497,3.496c-1.046,0.982-2.268,1.736-3.662,2.26c-1.396,0.523-2.87,0.784-4.424,0.784
		c-2.41,0-4.574-0.61-6.493-1.831s-3.353-2.83-4.305-4.828l1.761-0.998c0.855,1.648,2.093,2.973,3.71,3.972
		c1.617,0.998,3.393,1.498,5.327,1.498c1.268,0,2.457-0.214,3.567-0.643c1.109-0.428,2.069-1.039,2.878-1.831
		c0.809-0.793,1.451-1.729,1.927-2.807c0.476-1.077,0.713-2.283,0.713-3.614c0-1.269-0.23-2.427-0.689-3.473
		c-0.46-1.047-1.087-1.95-1.879-2.711c-0.793-0.762-1.721-1.348-2.782-1.761c-1.063-0.411-2.212-0.618-3.449-0.618
		c-1.617,0-3.139,0.357-4.566,1.07c-1.427,0.714-2.601,1.736-3.52,3.068h-2.283c0.031-0.222,0.119-0.666,0.262-1.332
		s0.301-1.458,0.476-2.378c0.174-0.92,0.372-1.935,0.595-3.045c0.222-1.109,0.443-2.219,0.666-3.329
		c0.539-2.6,1.125-5.486,1.76-8.657h16.173v2.235h-14.365l-2.664,13.366c0.951-1.015,2.093-1.799,3.425-2.354
		C1589.033,792.516,1590.46,792.238,1591.982,792.238z"/>
</g>
</svg>
